%TF.GenerationSoftware,KiCad,Pcbnew,9.0.7*%
%TF.CreationDate,2026-03-09T10:22:00+01:00*%
%TF.ProjectId,Led_Torch,4c65645f-546f-4726-9368-2e6b69636164,1.0*%
%TF.SameCoordinates,Original*%
%TF.FileFunction,Legend,Top*%
%TF.FilePolarity,Positive*%
%FSLAX46Y46*%
G04 Gerber Fmt 4.6, Leading zero omitted, Abs format (unit mm)*
G04 Created by KiCad (PCBNEW 9.0.7) date 2026-03-09 10:22:00*
%MOMM*%
%LPD*%
G01*
G04 APERTURE LIST*
%ADD10C,0.200000*%
%ADD11C,0.100000*%
%ADD12C,0.150000*%
%ADD13C,0.120000*%
G04 APERTURE END LIST*
D10*
X186551673Y-92704266D02*
X187313578Y-92704266D01*
X155563673Y-92704266D02*
X156325578Y-92704266D01*
X155944625Y-93085219D02*
X155944625Y-92323314D01*
D11*
X130379115Y-98298533D02*
X129617211Y-98298533D01*
X129843884Y-91312466D02*
X130605789Y-91312466D01*
X130224836Y-91693419D02*
X130224836Y-90931514D01*
D12*
X141565333Y-97101819D02*
X141232000Y-96625628D01*
X140993905Y-97101819D02*
X140993905Y-96101819D01*
X140993905Y-96101819D02*
X141374857Y-96101819D01*
X141374857Y-96101819D02*
X141470095Y-96149438D01*
X141470095Y-96149438D02*
X141517714Y-96197057D01*
X141517714Y-96197057D02*
X141565333Y-96292295D01*
X141565333Y-96292295D02*
X141565333Y-96435152D01*
X141565333Y-96435152D02*
X141517714Y-96530390D01*
X141517714Y-96530390D02*
X141470095Y-96578009D01*
X141470095Y-96578009D02*
X141374857Y-96625628D01*
X141374857Y-96625628D02*
X140993905Y-96625628D01*
X142517714Y-97101819D02*
X141946286Y-97101819D01*
X142232000Y-97101819D02*
X142232000Y-96101819D01*
X142232000Y-96101819D02*
X142136762Y-96244676D01*
X142136762Y-96244676D02*
X142041524Y-96339914D01*
X142041524Y-96339914D02*
X141946286Y-96387533D01*
X146621667Y-90595200D02*
X146764524Y-90642819D01*
X146764524Y-90642819D02*
X147002619Y-90642819D01*
X147002619Y-90642819D02*
X147097857Y-90595200D01*
X147097857Y-90595200D02*
X147145476Y-90547580D01*
X147145476Y-90547580D02*
X147193095Y-90452342D01*
X147193095Y-90452342D02*
X147193095Y-90357104D01*
X147193095Y-90357104D02*
X147145476Y-90261866D01*
X147145476Y-90261866D02*
X147097857Y-90214247D01*
X147097857Y-90214247D02*
X147002619Y-90166628D01*
X147002619Y-90166628D02*
X146812143Y-90119009D01*
X146812143Y-90119009D02*
X146716905Y-90071390D01*
X146716905Y-90071390D02*
X146669286Y-90023771D01*
X146669286Y-90023771D02*
X146621667Y-89928533D01*
X146621667Y-89928533D02*
X146621667Y-89833295D01*
X146621667Y-89833295D02*
X146669286Y-89738057D01*
X146669286Y-89738057D02*
X146716905Y-89690438D01*
X146716905Y-89690438D02*
X146812143Y-89642819D01*
X146812143Y-89642819D02*
X147050238Y-89642819D01*
X147050238Y-89642819D02*
X147193095Y-89690438D01*
X147526429Y-89642819D02*
X147764524Y-90642819D01*
X147764524Y-90642819D02*
X147955000Y-89928533D01*
X147955000Y-89928533D02*
X148145476Y-90642819D01*
X148145476Y-90642819D02*
X148383572Y-89642819D01*
X149288333Y-90642819D02*
X148716905Y-90642819D01*
X149002619Y-90642819D02*
X149002619Y-89642819D01*
X149002619Y-89642819D02*
X148907381Y-89785676D01*
X148907381Y-89785676D02*
X148812143Y-89880914D01*
X148812143Y-89880914D02*
X148716905Y-89928533D01*
X171299285Y-106611009D02*
X171442142Y-106658628D01*
X171442142Y-106658628D02*
X171489761Y-106706247D01*
X171489761Y-106706247D02*
X171537380Y-106801485D01*
X171537380Y-106801485D02*
X171537380Y-106944342D01*
X171537380Y-106944342D02*
X171489761Y-107039580D01*
X171489761Y-107039580D02*
X171442142Y-107087200D01*
X171442142Y-107087200D02*
X171346904Y-107134819D01*
X171346904Y-107134819D02*
X170965952Y-107134819D01*
X170965952Y-107134819D02*
X170965952Y-106134819D01*
X170965952Y-106134819D02*
X171299285Y-106134819D01*
X171299285Y-106134819D02*
X171394523Y-106182438D01*
X171394523Y-106182438D02*
X171442142Y-106230057D01*
X171442142Y-106230057D02*
X171489761Y-106325295D01*
X171489761Y-106325295D02*
X171489761Y-106420533D01*
X171489761Y-106420533D02*
X171442142Y-106515771D01*
X171442142Y-106515771D02*
X171394523Y-106563390D01*
X171394523Y-106563390D02*
X171299285Y-106611009D01*
X171299285Y-106611009D02*
X170965952Y-106611009D01*
X171823095Y-106134819D02*
X172394523Y-106134819D01*
X172108809Y-107134819D02*
X172108809Y-106134819D01*
X173251666Y-107134819D02*
X172680238Y-107134819D01*
X172965952Y-107134819D02*
X172965952Y-106134819D01*
X172965952Y-106134819D02*
X172870714Y-106277676D01*
X172870714Y-106277676D02*
X172775476Y-106372914D01*
X172775476Y-106372914D02*
X172680238Y-106420533D01*
X167545236Y-85783009D02*
X167688093Y-85830628D01*
X167688093Y-85830628D02*
X167735712Y-85878247D01*
X167735712Y-85878247D02*
X167783331Y-85973485D01*
X167783331Y-85973485D02*
X167783331Y-86116342D01*
X167783331Y-86116342D02*
X167735712Y-86211580D01*
X167735712Y-86211580D02*
X167688093Y-86259200D01*
X167688093Y-86259200D02*
X167592855Y-86306819D01*
X167592855Y-86306819D02*
X167211903Y-86306819D01*
X167211903Y-86306819D02*
X167211903Y-85306819D01*
X167211903Y-85306819D02*
X167545236Y-85306819D01*
X167545236Y-85306819D02*
X167640474Y-85354438D01*
X167640474Y-85354438D02*
X167688093Y-85402057D01*
X167688093Y-85402057D02*
X167735712Y-85497295D01*
X167735712Y-85497295D02*
X167735712Y-85592533D01*
X167735712Y-85592533D02*
X167688093Y-85687771D01*
X167688093Y-85687771D02*
X167640474Y-85735390D01*
X167640474Y-85735390D02*
X167545236Y-85783009D01*
X167545236Y-85783009D02*
X167211903Y-85783009D01*
X168640474Y-86306819D02*
X168640474Y-85783009D01*
X168640474Y-85783009D02*
X168592855Y-85687771D01*
X168592855Y-85687771D02*
X168497617Y-85640152D01*
X168497617Y-85640152D02*
X168307141Y-85640152D01*
X168307141Y-85640152D02*
X168211903Y-85687771D01*
X168640474Y-86259200D02*
X168545236Y-86306819D01*
X168545236Y-86306819D02*
X168307141Y-86306819D01*
X168307141Y-86306819D02*
X168211903Y-86259200D01*
X168211903Y-86259200D02*
X168164284Y-86163961D01*
X168164284Y-86163961D02*
X168164284Y-86068723D01*
X168164284Y-86068723D02*
X168211903Y-85973485D01*
X168211903Y-85973485D02*
X168307141Y-85925866D01*
X168307141Y-85925866D02*
X168545236Y-85925866D01*
X168545236Y-85925866D02*
X168640474Y-85878247D01*
X168973808Y-85640152D02*
X169354760Y-85640152D01*
X169116665Y-85306819D02*
X169116665Y-86163961D01*
X169116665Y-86163961D02*
X169164284Y-86259200D01*
X169164284Y-86259200D02*
X169259522Y-86306819D01*
X169259522Y-86306819D02*
X169354760Y-86306819D01*
X169545237Y-85640152D02*
X169926189Y-85640152D01*
X169688094Y-85306819D02*
X169688094Y-86163961D01*
X169688094Y-86163961D02*
X169735713Y-86259200D01*
X169735713Y-86259200D02*
X169830951Y-86306819D01*
X169830951Y-86306819D02*
X169926189Y-86306819D01*
X170640475Y-86259200D02*
X170545237Y-86306819D01*
X170545237Y-86306819D02*
X170354761Y-86306819D01*
X170354761Y-86306819D02*
X170259523Y-86259200D01*
X170259523Y-86259200D02*
X170211904Y-86163961D01*
X170211904Y-86163961D02*
X170211904Y-85783009D01*
X170211904Y-85783009D02*
X170259523Y-85687771D01*
X170259523Y-85687771D02*
X170354761Y-85640152D01*
X170354761Y-85640152D02*
X170545237Y-85640152D01*
X170545237Y-85640152D02*
X170640475Y-85687771D01*
X170640475Y-85687771D02*
X170688094Y-85783009D01*
X170688094Y-85783009D02*
X170688094Y-85878247D01*
X170688094Y-85878247D02*
X170211904Y-85973485D01*
X171116666Y-86306819D02*
X171116666Y-85640152D01*
X171116666Y-85830628D02*
X171164285Y-85735390D01*
X171164285Y-85735390D02*
X171211904Y-85687771D01*
X171211904Y-85687771D02*
X171307142Y-85640152D01*
X171307142Y-85640152D02*
X171402380Y-85640152D01*
X171640476Y-85640152D02*
X171878571Y-86306819D01*
X172116666Y-85640152D02*
X171878571Y-86306819D01*
X171878571Y-86306819D02*
X171783333Y-86544914D01*
X171783333Y-86544914D02*
X171735714Y-86592533D01*
X171735714Y-86592533D02*
X171640476Y-86640152D01*
X172259524Y-86402057D02*
X173021428Y-86402057D01*
X173830952Y-86211580D02*
X173783333Y-86259200D01*
X173783333Y-86259200D02*
X173640476Y-86306819D01*
X173640476Y-86306819D02*
X173545238Y-86306819D01*
X173545238Y-86306819D02*
X173402381Y-86259200D01*
X173402381Y-86259200D02*
X173307143Y-86163961D01*
X173307143Y-86163961D02*
X173259524Y-86068723D01*
X173259524Y-86068723D02*
X173211905Y-85878247D01*
X173211905Y-85878247D02*
X173211905Y-85735390D01*
X173211905Y-85735390D02*
X173259524Y-85544914D01*
X173259524Y-85544914D02*
X173307143Y-85449676D01*
X173307143Y-85449676D02*
X173402381Y-85354438D01*
X173402381Y-85354438D02*
X173545238Y-85306819D01*
X173545238Y-85306819D02*
X173640476Y-85306819D01*
X173640476Y-85306819D02*
X173783333Y-85354438D01*
X173783333Y-85354438D02*
X173830952Y-85402057D01*
X174640476Y-86259200D02*
X174545238Y-86306819D01*
X174545238Y-86306819D02*
X174354762Y-86306819D01*
X174354762Y-86306819D02*
X174259524Y-86259200D01*
X174259524Y-86259200D02*
X174211905Y-86163961D01*
X174211905Y-86163961D02*
X174211905Y-85783009D01*
X174211905Y-85783009D02*
X174259524Y-85687771D01*
X174259524Y-85687771D02*
X174354762Y-85640152D01*
X174354762Y-85640152D02*
X174545238Y-85640152D01*
X174545238Y-85640152D02*
X174640476Y-85687771D01*
X174640476Y-85687771D02*
X174688095Y-85783009D01*
X174688095Y-85783009D02*
X174688095Y-85878247D01*
X174688095Y-85878247D02*
X174211905Y-85973485D01*
X175259524Y-86306819D02*
X175164286Y-86259200D01*
X175164286Y-86259200D02*
X175116667Y-86163961D01*
X175116667Y-86163961D02*
X175116667Y-85306819D01*
X175783334Y-86306819D02*
X175688096Y-86259200D01*
X175688096Y-86259200D02*
X175640477Y-86163961D01*
X175640477Y-86163961D02*
X175640477Y-85306819D01*
X127785905Y-91259819D02*
X127785905Y-90259819D01*
X127785905Y-90259819D02*
X128024000Y-90259819D01*
X128024000Y-90259819D02*
X128166857Y-90307438D01*
X128166857Y-90307438D02*
X128262095Y-90402676D01*
X128262095Y-90402676D02*
X128309714Y-90497914D01*
X128309714Y-90497914D02*
X128357333Y-90688390D01*
X128357333Y-90688390D02*
X128357333Y-90831247D01*
X128357333Y-90831247D02*
X128309714Y-91021723D01*
X128309714Y-91021723D02*
X128262095Y-91116961D01*
X128262095Y-91116961D02*
X128166857Y-91212200D01*
X128166857Y-91212200D02*
X128024000Y-91259819D01*
X128024000Y-91259819D02*
X127785905Y-91259819D01*
X129309714Y-91259819D02*
X128738286Y-91259819D01*
X129024000Y-91259819D02*
X129024000Y-90259819D01*
X129024000Y-90259819D02*
X128928762Y-90402676D01*
X128928762Y-90402676D02*
X128833524Y-90497914D01*
X128833524Y-90497914D02*
X128738286Y-90545533D01*
D13*
%TO.C,R1*%
X139700000Y-91618000D02*
X139700000Y-92568000D01*
X139700000Y-97358000D02*
X139700000Y-96408000D01*
X140620000Y-92568000D02*
X138780000Y-92568000D01*
X138780000Y-96408000D01*
X140620000Y-96408000D01*
X140620000Y-92568000D01*
%TO.C,SW1*%
X149705000Y-94488000D02*
G75*
G02*
X146205000Y-94488000I-1750000J0D01*
G01*
X146205000Y-94488000D02*
G75*
G02*
X149705000Y-94488000I1750000J0D01*
G01*
X151075000Y-93388000D02*
X151075000Y-95588000D01*
X145455000Y-97608000D02*
X150455000Y-97608000D01*
X145455000Y-91368000D02*
X150455000Y-91368000D01*
X144835000Y-95588000D02*
X144835000Y-93388000D01*
%TO.C,BT1*%
X157140000Y-91767000D02*
X160758000Y-91767000D01*
X157140000Y-93477000D02*
X157140000Y-91767000D01*
X157140000Y-97277000D02*
X157140000Y-98987000D01*
X160758000Y-98987000D02*
X157140000Y-98987000D01*
X163602700Y-87267000D02*
X179297300Y-87267000D01*
X167590000Y-103487000D02*
X163602700Y-103487000D01*
X169790000Y-101287000D02*
X167590000Y-103487000D01*
X173110000Y-101287000D02*
X169790000Y-101287000D01*
X173110000Y-101287000D02*
X175310000Y-103487000D01*
X179297300Y-103487000D02*
X175310000Y-103487000D01*
X182142000Y-91767000D02*
X185760000Y-91767000D01*
X185760000Y-93477000D02*
X185760000Y-91767000D01*
X185760000Y-97277000D02*
X185760000Y-98987000D01*
X185760000Y-98987000D02*
X182142000Y-98987000D01*
X160758000Y-91767000D02*
G75*
G02*
X163604628Y-87265210I10692020J-3610010D01*
G01*
X163604629Y-103488789D02*
G75*
G02*
X160758000Y-98987000I7845366J8111785D01*
G01*
X179295371Y-87265211D02*
G75*
G02*
X182142000Y-91767000I-7845371J-8111789D01*
G01*
X182142000Y-98987000D02*
G75*
G02*
X179295371Y-103488789I-10692020J3610012D01*
G01*
%TO.C,D1*%
X131339000Y-91923000D02*
X128249000Y-91923000D01*
X129794000Y-97473000D02*
G75*
G02*
X128249170Y-91923000I0J2990000D01*
G01*
X131338830Y-91923000D02*
G75*
G02*
X129794000Y-97473000I-1544830J-2560000D01*
G01*
X132294000Y-94483000D02*
G75*
G02*
X127294000Y-94483000I-2500000J0D01*
G01*
X127294000Y-94483000D02*
G75*
G02*
X132294000Y-94483000I2500000J0D01*
G01*
%TD*%
M02*
