%TF.GenerationSoftware,KiCad,Pcbnew,9.0.7*%
%TF.CreationDate,2026-03-09T10:22:01+01:00*%
%TF.ProjectId,Led_Torch,4c65645f-546f-4726-9368-2e6b69636164,1.0*%
%TF.SameCoordinates,Original*%
%TF.FileFunction,AssemblyDrawing,Top*%
%FSLAX46Y46*%
G04 Gerber Fmt 4.6, Leading zero omitted, Abs format (unit mm)*
G04 Created by KiCad (PCBNEW 9.0.7) date 2026-03-09 10:22:01*
%MOMM*%
%LPD*%
G01*
G04 APERTURE LIST*
%ADD10C,0.150000*%
%ADD11C,0.108000*%
%ADD12C,0.120000*%
%ADD13C,0.100000*%
G04 APERTURE END LIST*
D10*
X138503819Y-95281666D02*
X138503819Y-95853094D01*
X138503819Y-95567380D02*
X137503819Y-95567380D01*
X137503819Y-95567380D02*
X137646676Y-95662618D01*
X137646676Y-95662618D02*
X137741914Y-95757856D01*
X137741914Y-95757856D02*
X137789533Y-95853094D01*
X137503819Y-94662618D02*
X137503819Y-94567380D01*
X137503819Y-94567380D02*
X137551438Y-94472142D01*
X137551438Y-94472142D02*
X137599057Y-94424523D01*
X137599057Y-94424523D02*
X137694295Y-94376904D01*
X137694295Y-94376904D02*
X137884771Y-94329285D01*
X137884771Y-94329285D02*
X138122866Y-94329285D01*
X138122866Y-94329285D02*
X138313342Y-94376904D01*
X138313342Y-94376904D02*
X138408580Y-94424523D01*
X138408580Y-94424523D02*
X138456200Y-94472142D01*
X138456200Y-94472142D02*
X138503819Y-94567380D01*
X138503819Y-94567380D02*
X138503819Y-94662618D01*
X138503819Y-94662618D02*
X138456200Y-94757856D01*
X138456200Y-94757856D02*
X138408580Y-94805475D01*
X138408580Y-94805475D02*
X138313342Y-94853094D01*
X138313342Y-94853094D02*
X138122866Y-94900713D01*
X138122866Y-94900713D02*
X137884771Y-94900713D01*
X137884771Y-94900713D02*
X137694295Y-94853094D01*
X137694295Y-94853094D02*
X137599057Y-94805475D01*
X137599057Y-94805475D02*
X137551438Y-94757856D01*
X137551438Y-94757856D02*
X137503819Y-94662618D01*
X137503819Y-93710237D02*
X137503819Y-93614999D01*
X137503819Y-93614999D02*
X137551438Y-93519761D01*
X137551438Y-93519761D02*
X137599057Y-93472142D01*
X137599057Y-93472142D02*
X137694295Y-93424523D01*
X137694295Y-93424523D02*
X137884771Y-93376904D01*
X137884771Y-93376904D02*
X138122866Y-93376904D01*
X138122866Y-93376904D02*
X138313342Y-93424523D01*
X138313342Y-93424523D02*
X138408580Y-93472142D01*
X138408580Y-93472142D02*
X138456200Y-93519761D01*
X138456200Y-93519761D02*
X138503819Y-93614999D01*
X138503819Y-93614999D02*
X138503819Y-93710237D01*
X138503819Y-93710237D02*
X138456200Y-93805475D01*
X138456200Y-93805475D02*
X138408580Y-93853094D01*
X138408580Y-93853094D02*
X138313342Y-93900713D01*
X138313342Y-93900713D02*
X138122866Y-93948332D01*
X138122866Y-93948332D02*
X137884771Y-93948332D01*
X137884771Y-93948332D02*
X137694295Y-93900713D01*
X137694295Y-93900713D02*
X137599057Y-93853094D01*
X137599057Y-93853094D02*
X137551438Y-93805475D01*
X137551438Y-93805475D02*
X137503819Y-93710237D01*
D11*
X140027469Y-94607999D02*
X139684612Y-94847999D01*
X140027469Y-95019428D02*
X139307469Y-95019428D01*
X139307469Y-95019428D02*
X139307469Y-94745142D01*
X139307469Y-94745142D02*
X139341755Y-94676571D01*
X139341755Y-94676571D02*
X139376041Y-94642285D01*
X139376041Y-94642285D02*
X139444612Y-94607999D01*
X139444612Y-94607999D02*
X139547469Y-94607999D01*
X139547469Y-94607999D02*
X139616041Y-94642285D01*
X139616041Y-94642285D02*
X139650326Y-94676571D01*
X139650326Y-94676571D02*
X139684612Y-94745142D01*
X139684612Y-94745142D02*
X139684612Y-95019428D01*
X140027469Y-93922285D02*
X140027469Y-94333714D01*
X140027469Y-94127999D02*
X139307469Y-94127999D01*
X139307469Y-94127999D02*
X139410326Y-94196571D01*
X139410326Y-94196571D02*
X139478898Y-94265142D01*
X139478898Y-94265142D02*
X139513184Y-94333714D01*
D10*
X143597857Y-99145200D02*
X143740714Y-99192819D01*
X143740714Y-99192819D02*
X143978809Y-99192819D01*
X143978809Y-99192819D02*
X144074047Y-99145200D01*
X144074047Y-99145200D02*
X144121666Y-99097580D01*
X144121666Y-99097580D02*
X144169285Y-99002342D01*
X144169285Y-99002342D02*
X144169285Y-98907104D01*
X144169285Y-98907104D02*
X144121666Y-98811866D01*
X144121666Y-98811866D02*
X144074047Y-98764247D01*
X144074047Y-98764247D02*
X143978809Y-98716628D01*
X143978809Y-98716628D02*
X143788333Y-98669009D01*
X143788333Y-98669009D02*
X143693095Y-98621390D01*
X143693095Y-98621390D02*
X143645476Y-98573771D01*
X143645476Y-98573771D02*
X143597857Y-98478533D01*
X143597857Y-98478533D02*
X143597857Y-98383295D01*
X143597857Y-98383295D02*
X143645476Y-98288057D01*
X143645476Y-98288057D02*
X143693095Y-98240438D01*
X143693095Y-98240438D02*
X143788333Y-98192819D01*
X143788333Y-98192819D02*
X144026428Y-98192819D01*
X144026428Y-98192819D02*
X144169285Y-98240438D01*
X144502619Y-98192819D02*
X144740714Y-99192819D01*
X144740714Y-99192819D02*
X144931190Y-98478533D01*
X144931190Y-98478533D02*
X145121666Y-99192819D01*
X145121666Y-99192819D02*
X145359762Y-98192819D01*
X145502619Y-99288057D02*
X146264523Y-99288057D01*
X146502619Y-99192819D02*
X146502619Y-98192819D01*
X146502619Y-98192819D02*
X146740714Y-98192819D01*
X146740714Y-98192819D02*
X146883571Y-98240438D01*
X146883571Y-98240438D02*
X146978809Y-98335676D01*
X146978809Y-98335676D02*
X147026428Y-98430914D01*
X147026428Y-98430914D02*
X147074047Y-98621390D01*
X147074047Y-98621390D02*
X147074047Y-98764247D01*
X147074047Y-98764247D02*
X147026428Y-98954723D01*
X147026428Y-98954723D02*
X146978809Y-99049961D01*
X146978809Y-99049961D02*
X146883571Y-99145200D01*
X146883571Y-99145200D02*
X146740714Y-99192819D01*
X146740714Y-99192819D02*
X146502619Y-99192819D01*
X147502619Y-99192819D02*
X147502619Y-98192819D01*
X147502619Y-98192819D02*
X147883571Y-98192819D01*
X147883571Y-98192819D02*
X147978809Y-98240438D01*
X147978809Y-98240438D02*
X148026428Y-98288057D01*
X148026428Y-98288057D02*
X148074047Y-98383295D01*
X148074047Y-98383295D02*
X148074047Y-98526152D01*
X148074047Y-98526152D02*
X148026428Y-98621390D01*
X148026428Y-98621390D02*
X147978809Y-98669009D01*
X147978809Y-98669009D02*
X147883571Y-98716628D01*
X147883571Y-98716628D02*
X147502619Y-98716628D01*
X148455000Y-99145200D02*
X148597857Y-99192819D01*
X148597857Y-99192819D02*
X148835952Y-99192819D01*
X148835952Y-99192819D02*
X148931190Y-99145200D01*
X148931190Y-99145200D02*
X148978809Y-99097580D01*
X148978809Y-99097580D02*
X149026428Y-99002342D01*
X149026428Y-99002342D02*
X149026428Y-98907104D01*
X149026428Y-98907104D02*
X148978809Y-98811866D01*
X148978809Y-98811866D02*
X148931190Y-98764247D01*
X148931190Y-98764247D02*
X148835952Y-98716628D01*
X148835952Y-98716628D02*
X148645476Y-98669009D01*
X148645476Y-98669009D02*
X148550238Y-98621390D01*
X148550238Y-98621390D02*
X148502619Y-98573771D01*
X148502619Y-98573771D02*
X148455000Y-98478533D01*
X148455000Y-98478533D02*
X148455000Y-98383295D01*
X148455000Y-98383295D02*
X148502619Y-98288057D01*
X148502619Y-98288057D02*
X148550238Y-98240438D01*
X148550238Y-98240438D02*
X148645476Y-98192819D01*
X148645476Y-98192819D02*
X148883571Y-98192819D01*
X148883571Y-98192819D02*
X149026428Y-98240438D01*
X149312143Y-98192819D02*
X149883571Y-98192819D01*
X149597857Y-99192819D02*
X149597857Y-98192819D01*
X149978810Y-99288057D02*
X150740714Y-99288057D01*
X150883572Y-99192819D02*
X151407381Y-98526152D01*
X150883572Y-98526152D02*
X151407381Y-99192819D01*
X151740715Y-98288057D02*
X151788334Y-98240438D01*
X151788334Y-98240438D02*
X151883572Y-98192819D01*
X151883572Y-98192819D02*
X152121667Y-98192819D01*
X152121667Y-98192819D02*
X152216905Y-98240438D01*
X152216905Y-98240438D02*
X152264524Y-98288057D01*
X152264524Y-98288057D02*
X152312143Y-98383295D01*
X152312143Y-98383295D02*
X152312143Y-98478533D01*
X152312143Y-98478533D02*
X152264524Y-98621390D01*
X152264524Y-98621390D02*
X151693096Y-99192819D01*
X151693096Y-99192819D02*
X152312143Y-99192819D01*
X146621667Y-94895200D02*
X146764524Y-94942819D01*
X146764524Y-94942819D02*
X147002619Y-94942819D01*
X147002619Y-94942819D02*
X147097857Y-94895200D01*
X147097857Y-94895200D02*
X147145476Y-94847580D01*
X147145476Y-94847580D02*
X147193095Y-94752342D01*
X147193095Y-94752342D02*
X147193095Y-94657104D01*
X147193095Y-94657104D02*
X147145476Y-94561866D01*
X147145476Y-94561866D02*
X147097857Y-94514247D01*
X147097857Y-94514247D02*
X147002619Y-94466628D01*
X147002619Y-94466628D02*
X146812143Y-94419009D01*
X146812143Y-94419009D02*
X146716905Y-94371390D01*
X146716905Y-94371390D02*
X146669286Y-94323771D01*
X146669286Y-94323771D02*
X146621667Y-94228533D01*
X146621667Y-94228533D02*
X146621667Y-94133295D01*
X146621667Y-94133295D02*
X146669286Y-94038057D01*
X146669286Y-94038057D02*
X146716905Y-93990438D01*
X146716905Y-93990438D02*
X146812143Y-93942819D01*
X146812143Y-93942819D02*
X147050238Y-93942819D01*
X147050238Y-93942819D02*
X147193095Y-93990438D01*
X147526429Y-93942819D02*
X147764524Y-94942819D01*
X147764524Y-94942819D02*
X147955000Y-94228533D01*
X147955000Y-94228533D02*
X148145476Y-94942819D01*
X148145476Y-94942819D02*
X148383572Y-93942819D01*
X149288333Y-94942819D02*
X148716905Y-94942819D01*
X149002619Y-94942819D02*
X149002619Y-93942819D01*
X149002619Y-93942819D02*
X148907381Y-94085676D01*
X148907381Y-94085676D02*
X148812143Y-94180914D01*
X148812143Y-94180914D02*
X148716905Y-94228533D01*
X170918285Y-98102009D02*
X171061142Y-98149628D01*
X171061142Y-98149628D02*
X171108761Y-98197247D01*
X171108761Y-98197247D02*
X171156380Y-98292485D01*
X171156380Y-98292485D02*
X171156380Y-98435342D01*
X171156380Y-98435342D02*
X171108761Y-98530580D01*
X171108761Y-98530580D02*
X171061142Y-98578200D01*
X171061142Y-98578200D02*
X170965904Y-98625819D01*
X170965904Y-98625819D02*
X170584952Y-98625819D01*
X170584952Y-98625819D02*
X170584952Y-97625819D01*
X170584952Y-97625819D02*
X170918285Y-97625819D01*
X170918285Y-97625819D02*
X171013523Y-97673438D01*
X171013523Y-97673438D02*
X171061142Y-97721057D01*
X171061142Y-97721057D02*
X171108761Y-97816295D01*
X171108761Y-97816295D02*
X171108761Y-97911533D01*
X171108761Y-97911533D02*
X171061142Y-98006771D01*
X171061142Y-98006771D02*
X171013523Y-98054390D01*
X171013523Y-98054390D02*
X170918285Y-98102009D01*
X170918285Y-98102009D02*
X170584952Y-98102009D01*
X171442095Y-97625819D02*
X172013523Y-97625819D01*
X171727809Y-98625819D02*
X171727809Y-97625819D01*
X172870666Y-98625819D02*
X172299238Y-98625819D01*
X172584952Y-98625819D02*
X172584952Y-97625819D01*
X172584952Y-97625819D02*
X172489714Y-97768676D01*
X172489714Y-97768676D02*
X172394476Y-97863914D01*
X172394476Y-97863914D02*
X172299238Y-97911533D01*
X126184819Y-95130857D02*
X126184819Y-95607047D01*
X126184819Y-95607047D02*
X125184819Y-95607047D01*
X125661009Y-94797523D02*
X125661009Y-94464190D01*
X126184819Y-94321333D02*
X126184819Y-94797523D01*
X126184819Y-94797523D02*
X125184819Y-94797523D01*
X125184819Y-94797523D02*
X125184819Y-94321333D01*
X126184819Y-93892761D02*
X125184819Y-93892761D01*
X125184819Y-93892761D02*
X125184819Y-93654666D01*
X125184819Y-93654666D02*
X125232438Y-93511809D01*
X125232438Y-93511809D02*
X125327676Y-93416571D01*
X125327676Y-93416571D02*
X125422914Y-93368952D01*
X125422914Y-93368952D02*
X125613390Y-93321333D01*
X125613390Y-93321333D02*
X125756247Y-93321333D01*
X125756247Y-93321333D02*
X125946723Y-93368952D01*
X125946723Y-93368952D02*
X126041961Y-93416571D01*
X126041961Y-93416571D02*
X126137200Y-93511809D01*
X126137200Y-93511809D02*
X126184819Y-93654666D01*
X126184819Y-93654666D02*
X126184819Y-93892761D01*
D12*
X130157855Y-95073475D02*
X129357855Y-95073475D01*
X129357855Y-95073475D02*
X129357855Y-94882999D01*
X129357855Y-94882999D02*
X129395950Y-94768713D01*
X129395950Y-94768713D02*
X129472140Y-94692523D01*
X129472140Y-94692523D02*
X129548331Y-94654428D01*
X129548331Y-94654428D02*
X129700712Y-94616332D01*
X129700712Y-94616332D02*
X129814998Y-94616332D01*
X129814998Y-94616332D02*
X129967379Y-94654428D01*
X129967379Y-94654428D02*
X130043569Y-94692523D01*
X130043569Y-94692523D02*
X130119760Y-94768713D01*
X130119760Y-94768713D02*
X130157855Y-94882999D01*
X130157855Y-94882999D02*
X130157855Y-95073475D01*
X130157855Y-93854428D02*
X130157855Y-94311571D01*
X130157855Y-94082999D02*
X129357855Y-94082999D01*
X129357855Y-94082999D02*
X129472140Y-94159190D01*
X129472140Y-94159190D02*
X129548331Y-94235380D01*
X129548331Y-94235380D02*
X129586426Y-94311571D01*
D13*
%TO.C,R1*%
X139700000Y-90678000D02*
X139700000Y-92688000D01*
X139700000Y-98298000D02*
X139700000Y-96288000D01*
X140500000Y-92688000D02*
X138900000Y-92688000D01*
X138900000Y-96288000D01*
X140500000Y-96288000D01*
X140500000Y-92688000D01*
%TO.C,SW1*%
X150955000Y-91488000D02*
X150955000Y-97488000D01*
X144955000Y-97488000D02*
X150955000Y-97488000D01*
X144955000Y-91488000D02*
X150955000Y-91488000D01*
X144955000Y-91488000D02*
X144955000Y-97488000D01*
%TO.C,BT1*%
X157250000Y-91877000D02*
X157250000Y-93477000D01*
X157250000Y-91877000D02*
X160837250Y-91877000D01*
X157250000Y-97277000D02*
X157250000Y-98877000D01*
X157250000Y-98877000D02*
X160837250Y-98877000D01*
X163647400Y-87377000D02*
X179252600Y-87377000D01*
X167550000Y-103377000D02*
X163647400Y-103377000D01*
X169750000Y-101177000D02*
X167550000Y-103377000D01*
X169750000Y-101177000D02*
X173150000Y-101177000D01*
X173150000Y-101177000D02*
X175350000Y-103377000D01*
X175350000Y-103377000D02*
X179252600Y-103377000D01*
X182062750Y-91877000D02*
X185650000Y-91877000D01*
X185650000Y-91877000D02*
X185650000Y-93477000D01*
X185650000Y-97277000D02*
X185650000Y-98877000D01*
X185650000Y-98877000D02*
X182062750Y-98877000D01*
X160837250Y-91877000D02*
G75*
G02*
X163647398Y-87377008I10612750J-3500000D01*
G01*
X163647398Y-103376992D02*
G75*
G02*
X160837250Y-98877000I7802592J7999985D01*
G01*
X179252602Y-87377008D02*
G75*
G02*
X182062750Y-91877000I-7802602J-7999992D01*
G01*
X182062750Y-98877000D02*
G75*
G02*
X179252602Y-103376992I-10612756J3500003D01*
G01*
%TO.C,D1*%
X131263694Y-91983000D02*
X128324306Y-91983000D01*
X131263694Y-91983000D02*
G75*
G02*
X128324306Y-91983000I-1469694J-2500000D01*
G01*
X132294000Y-94483000D02*
G75*
G02*
X127294000Y-94483000I-2500000J0D01*
G01*
X127294000Y-94483000D02*
G75*
G02*
X132294000Y-94483000I2500000J0D01*
G01*
%TD*%
M02*
