%TF.GenerationSoftware,KiCad,Pcbnew,9.0.7*%
%TF.CreationDate,2026-03-08T15:02:54+01:00*%
%TF.ProjectId,Led_Torch,4c65645f-546f-4726-9368-2e6b69636164,1.0*%
%TF.SameCoordinates,Original*%
%TF.FileFunction,AssemblyDrawing,Top*%
%FSLAX46Y46*%
G04 Gerber Fmt 4.6, Leading zero omitted, Abs format (unit mm)*
G04 Created by KiCad (PCBNEW 9.0.7) date 2026-03-08 15:02:54*
%MOMM*%
%LPD*%
G01*
G04 APERTURE LIST*
%ADD10C,0.150000*%
%ADD11C,0.120000*%
%ADD12C,0.108000*%
%ADD13C,0.100000*%
G04 APERTURE END LIST*
D10*
X126184819Y-95130857D02*
X126184819Y-95607047D01*
X126184819Y-95607047D02*
X125184819Y-95607047D01*
X125661009Y-94797523D02*
X125661009Y-94464190D01*
X126184819Y-94321333D02*
X126184819Y-94797523D01*
X126184819Y-94797523D02*
X125184819Y-94797523D01*
X125184819Y-94797523D02*
X125184819Y-94321333D01*
X126184819Y-93892761D02*
X125184819Y-93892761D01*
X125184819Y-93892761D02*
X125184819Y-93654666D01*
X125184819Y-93654666D02*
X125232438Y-93511809D01*
X125232438Y-93511809D02*
X125327676Y-93416571D01*
X125327676Y-93416571D02*
X125422914Y-93368952D01*
X125422914Y-93368952D02*
X125613390Y-93321333D01*
X125613390Y-93321333D02*
X125756247Y-93321333D01*
X125756247Y-93321333D02*
X125946723Y-93368952D01*
X125946723Y-93368952D02*
X126041961Y-93416571D01*
X126041961Y-93416571D02*
X126137200Y-93511809D01*
X126137200Y-93511809D02*
X126184819Y-93654666D01*
X126184819Y-93654666D02*
X126184819Y-93892761D01*
D11*
X130157855Y-95073475D02*
X129357855Y-95073475D01*
X129357855Y-95073475D02*
X129357855Y-94882999D01*
X129357855Y-94882999D02*
X129395950Y-94768713D01*
X129395950Y-94768713D02*
X129472140Y-94692523D01*
X129472140Y-94692523D02*
X129548331Y-94654428D01*
X129548331Y-94654428D02*
X129700712Y-94616332D01*
X129700712Y-94616332D02*
X129814998Y-94616332D01*
X129814998Y-94616332D02*
X129967379Y-94654428D01*
X129967379Y-94654428D02*
X130043569Y-94692523D01*
X130043569Y-94692523D02*
X130119760Y-94768713D01*
X130119760Y-94768713D02*
X130157855Y-94882999D01*
X130157855Y-94882999D02*
X130157855Y-95073475D01*
X130157855Y-93854428D02*
X130157855Y-94311571D01*
X130157855Y-94082999D02*
X129357855Y-94082999D01*
X129357855Y-94082999D02*
X129472140Y-94159190D01*
X129472140Y-94159190D02*
X129548331Y-94235380D01*
X129548331Y-94235380D02*
X129586426Y-94311571D01*
D10*
X138503819Y-94305476D02*
X138027628Y-94638809D01*
X138503819Y-94876904D02*
X137503819Y-94876904D01*
X137503819Y-94876904D02*
X137503819Y-94495952D01*
X137503819Y-94495952D02*
X137551438Y-94400714D01*
X137551438Y-94400714D02*
X137599057Y-94353095D01*
X137599057Y-94353095D02*
X137694295Y-94305476D01*
X137694295Y-94305476D02*
X137837152Y-94305476D01*
X137837152Y-94305476D02*
X137932390Y-94353095D01*
X137932390Y-94353095D02*
X137980009Y-94400714D01*
X137980009Y-94400714D02*
X138027628Y-94495952D01*
X138027628Y-94495952D02*
X138027628Y-94876904D01*
D12*
X140027469Y-94607999D02*
X139684612Y-94847999D01*
X140027469Y-95019428D02*
X139307469Y-95019428D01*
X139307469Y-95019428D02*
X139307469Y-94745142D01*
X139307469Y-94745142D02*
X139341755Y-94676571D01*
X139341755Y-94676571D02*
X139376041Y-94642285D01*
X139376041Y-94642285D02*
X139444612Y-94607999D01*
X139444612Y-94607999D02*
X139547469Y-94607999D01*
X139547469Y-94607999D02*
X139616041Y-94642285D01*
X139616041Y-94642285D02*
X139650326Y-94676571D01*
X139650326Y-94676571D02*
X139684612Y-94745142D01*
X139684612Y-94745142D02*
X139684612Y-95019428D01*
X140027469Y-93922285D02*
X140027469Y-94333714D01*
X140027469Y-94127999D02*
X139307469Y-94127999D01*
X139307469Y-94127999D02*
X139410326Y-94196571D01*
X139410326Y-94196571D02*
X139478898Y-94265142D01*
X139478898Y-94265142D02*
X139513184Y-94333714D01*
D10*
X170918285Y-97213009D02*
X171061142Y-97260628D01*
X171061142Y-97260628D02*
X171108761Y-97308247D01*
X171108761Y-97308247D02*
X171156380Y-97403485D01*
X171156380Y-97403485D02*
X171156380Y-97546342D01*
X171156380Y-97546342D02*
X171108761Y-97641580D01*
X171108761Y-97641580D02*
X171061142Y-97689200D01*
X171061142Y-97689200D02*
X170965904Y-97736819D01*
X170965904Y-97736819D02*
X170584952Y-97736819D01*
X170584952Y-97736819D02*
X170584952Y-96736819D01*
X170584952Y-96736819D02*
X170918285Y-96736819D01*
X170918285Y-96736819D02*
X171013523Y-96784438D01*
X171013523Y-96784438D02*
X171061142Y-96832057D01*
X171061142Y-96832057D02*
X171108761Y-96927295D01*
X171108761Y-96927295D02*
X171108761Y-97022533D01*
X171108761Y-97022533D02*
X171061142Y-97117771D01*
X171061142Y-97117771D02*
X171013523Y-97165390D01*
X171013523Y-97165390D02*
X170918285Y-97213009D01*
X170918285Y-97213009D02*
X170584952Y-97213009D01*
X171442095Y-96736819D02*
X172013523Y-96736819D01*
X171727809Y-97736819D02*
X171727809Y-96736819D01*
X172870666Y-97736819D02*
X172299238Y-97736819D01*
X172584952Y-97736819D02*
X172584952Y-96736819D01*
X172584952Y-96736819D02*
X172489714Y-96879676D01*
X172489714Y-96879676D02*
X172394476Y-96974914D01*
X172394476Y-96974914D02*
X172299238Y-97022533D01*
X143574047Y-99145200D02*
X143716904Y-99192819D01*
X143716904Y-99192819D02*
X143954999Y-99192819D01*
X143954999Y-99192819D02*
X144050237Y-99145200D01*
X144050237Y-99145200D02*
X144097856Y-99097580D01*
X144097856Y-99097580D02*
X144145475Y-99002342D01*
X144145475Y-99002342D02*
X144145475Y-98907104D01*
X144145475Y-98907104D02*
X144097856Y-98811866D01*
X144097856Y-98811866D02*
X144050237Y-98764247D01*
X144050237Y-98764247D02*
X143954999Y-98716628D01*
X143954999Y-98716628D02*
X143764523Y-98669009D01*
X143764523Y-98669009D02*
X143669285Y-98621390D01*
X143669285Y-98621390D02*
X143621666Y-98573771D01*
X143621666Y-98573771D02*
X143574047Y-98478533D01*
X143574047Y-98478533D02*
X143574047Y-98383295D01*
X143574047Y-98383295D02*
X143621666Y-98288057D01*
X143621666Y-98288057D02*
X143669285Y-98240438D01*
X143669285Y-98240438D02*
X143764523Y-98192819D01*
X143764523Y-98192819D02*
X144002618Y-98192819D01*
X144002618Y-98192819D02*
X144145475Y-98240438D01*
X144478809Y-98192819D02*
X144716904Y-99192819D01*
X144716904Y-99192819D02*
X144907380Y-98478533D01*
X144907380Y-98478533D02*
X145097856Y-99192819D01*
X145097856Y-99192819D02*
X145335952Y-98192819D01*
X145478809Y-99288057D02*
X146240713Y-99288057D01*
X146478809Y-99192819D02*
X146478809Y-98192819D01*
X146478809Y-98192819D02*
X146716904Y-98192819D01*
X146716904Y-98192819D02*
X146859761Y-98240438D01*
X146859761Y-98240438D02*
X146954999Y-98335676D01*
X146954999Y-98335676D02*
X147002618Y-98430914D01*
X147002618Y-98430914D02*
X147050237Y-98621390D01*
X147050237Y-98621390D02*
X147050237Y-98764247D01*
X147050237Y-98764247D02*
X147002618Y-98954723D01*
X147002618Y-98954723D02*
X146954999Y-99049961D01*
X146954999Y-99049961D02*
X146859761Y-99145200D01*
X146859761Y-99145200D02*
X146716904Y-99192819D01*
X146716904Y-99192819D02*
X146478809Y-99192819D01*
X147478809Y-99192819D02*
X147478809Y-98192819D01*
X147478809Y-98192819D02*
X147859761Y-98192819D01*
X147859761Y-98192819D02*
X147954999Y-98240438D01*
X147954999Y-98240438D02*
X148002618Y-98288057D01*
X148002618Y-98288057D02*
X148050237Y-98383295D01*
X148050237Y-98383295D02*
X148050237Y-98526152D01*
X148050237Y-98526152D02*
X148002618Y-98621390D01*
X148002618Y-98621390D02*
X147954999Y-98669009D01*
X147954999Y-98669009D02*
X147859761Y-98716628D01*
X147859761Y-98716628D02*
X147478809Y-98716628D01*
X148478809Y-99192819D02*
X148478809Y-98192819D01*
X148478809Y-98192819D02*
X148716904Y-98192819D01*
X148716904Y-98192819D02*
X148859761Y-98240438D01*
X148859761Y-98240438D02*
X148954999Y-98335676D01*
X148954999Y-98335676D02*
X149002618Y-98430914D01*
X149002618Y-98430914D02*
X149050237Y-98621390D01*
X149050237Y-98621390D02*
X149050237Y-98764247D01*
X149050237Y-98764247D02*
X149002618Y-98954723D01*
X149002618Y-98954723D02*
X148954999Y-99049961D01*
X148954999Y-99049961D02*
X148859761Y-99145200D01*
X148859761Y-99145200D02*
X148716904Y-99192819D01*
X148716904Y-99192819D02*
X148478809Y-99192819D01*
X149335952Y-98192819D02*
X149907380Y-98192819D01*
X149621666Y-99192819D02*
X149621666Y-98192819D01*
X150002619Y-99288057D02*
X150764523Y-99288057D01*
X150907381Y-99192819D02*
X151431190Y-98526152D01*
X150907381Y-98526152D02*
X151431190Y-99192819D01*
X151764524Y-98288057D02*
X151812143Y-98240438D01*
X151812143Y-98240438D02*
X151907381Y-98192819D01*
X151907381Y-98192819D02*
X152145476Y-98192819D01*
X152145476Y-98192819D02*
X152240714Y-98240438D01*
X152240714Y-98240438D02*
X152288333Y-98288057D01*
X152288333Y-98288057D02*
X152335952Y-98383295D01*
X152335952Y-98383295D02*
X152335952Y-98478533D01*
X152335952Y-98478533D02*
X152288333Y-98621390D01*
X152288333Y-98621390D02*
X151716905Y-99192819D01*
X151716905Y-99192819D02*
X152335952Y-99192819D01*
X146621667Y-94895200D02*
X146764524Y-94942819D01*
X146764524Y-94942819D02*
X147002619Y-94942819D01*
X147002619Y-94942819D02*
X147097857Y-94895200D01*
X147097857Y-94895200D02*
X147145476Y-94847580D01*
X147145476Y-94847580D02*
X147193095Y-94752342D01*
X147193095Y-94752342D02*
X147193095Y-94657104D01*
X147193095Y-94657104D02*
X147145476Y-94561866D01*
X147145476Y-94561866D02*
X147097857Y-94514247D01*
X147097857Y-94514247D02*
X147002619Y-94466628D01*
X147002619Y-94466628D02*
X146812143Y-94419009D01*
X146812143Y-94419009D02*
X146716905Y-94371390D01*
X146716905Y-94371390D02*
X146669286Y-94323771D01*
X146669286Y-94323771D02*
X146621667Y-94228533D01*
X146621667Y-94228533D02*
X146621667Y-94133295D01*
X146621667Y-94133295D02*
X146669286Y-94038057D01*
X146669286Y-94038057D02*
X146716905Y-93990438D01*
X146716905Y-93990438D02*
X146812143Y-93942819D01*
X146812143Y-93942819D02*
X147050238Y-93942819D01*
X147050238Y-93942819D02*
X147193095Y-93990438D01*
X147526429Y-93942819D02*
X147764524Y-94942819D01*
X147764524Y-94942819D02*
X147955000Y-94228533D01*
X147955000Y-94228533D02*
X148145476Y-94942819D01*
X148145476Y-94942819D02*
X148383572Y-93942819D01*
X149288333Y-94942819D02*
X148716905Y-94942819D01*
X149002619Y-94942819D02*
X149002619Y-93942819D01*
X149002619Y-93942819D02*
X148907381Y-94085676D01*
X148907381Y-94085676D02*
X148812143Y-94180914D01*
X148812143Y-94180914D02*
X148716905Y-94228533D01*
D13*
%TO.C,D1*%
X131263694Y-91983000D02*
X128324306Y-91983000D01*
X131263694Y-91983000D02*
G75*
G02*
X128324306Y-91983000I-1469694J-2500000D01*
G01*
X132294000Y-94483000D02*
G75*
G02*
X127294000Y-94483000I-2500000J0D01*
G01*
X127294000Y-94483000D02*
G75*
G02*
X132294000Y-94483000I2500000J0D01*
G01*
%TO.C,R1*%
X139700000Y-90678000D02*
X139700000Y-92688000D01*
X139700000Y-98298000D02*
X139700000Y-96288000D01*
X140500000Y-92688000D02*
X138900000Y-92688000D01*
X138900000Y-96288000D01*
X140500000Y-96288000D01*
X140500000Y-92688000D01*
%TO.C,Bat2032*%
X157250000Y-90988000D02*
X157250000Y-92588000D01*
X157250000Y-90988000D02*
X160837250Y-90988000D01*
X157250000Y-96388000D02*
X157250000Y-97988000D01*
X157250000Y-97988000D02*
X160837250Y-97988000D01*
X163647400Y-86488000D02*
X179252600Y-86488000D01*
X167550000Y-102488000D02*
X163647400Y-102488000D01*
X169750000Y-100288000D02*
X167550000Y-102488000D01*
X169750000Y-100288000D02*
X173150000Y-100288000D01*
X173150000Y-100288000D02*
X175350000Y-102488000D01*
X175350000Y-102488000D02*
X179252600Y-102488000D01*
X182062750Y-90988000D02*
X185650000Y-90988000D01*
X185650000Y-90988000D02*
X185650000Y-92588000D01*
X185650000Y-96388000D02*
X185650000Y-97988000D01*
X185650000Y-97988000D02*
X182062750Y-97988000D01*
X160837250Y-90988000D02*
G75*
G02*
X163647398Y-86488008I10612750J-3500000D01*
G01*
X163647398Y-102487992D02*
G75*
G02*
X160837250Y-97988000I7802592J7999985D01*
G01*
X179252602Y-86488008D02*
G75*
G02*
X182062750Y-90988000I-7802602J-7999992D01*
G01*
X182062750Y-97988000D02*
G75*
G02*
X179252602Y-102487992I-10612756J3500003D01*
G01*
%TO.C,SW1*%
X150955000Y-91488000D02*
X150955000Y-97488000D01*
X144955000Y-97488000D02*
X150955000Y-97488000D01*
X144955000Y-91488000D02*
X150955000Y-91488000D01*
X144955000Y-91488000D02*
X144955000Y-97488000D01*
%TD*%
M02*
