%TF.GenerationSoftware,KiCad,Pcbnew,9.0.7*%
%TF.CreationDate,2026-03-09T10:21:59+01:00*%
%TF.ProjectId,Led_Torch,4c65645f-546f-4726-9368-2e6b69636164,1.0*%
%TF.SameCoordinates,Original*%
%TF.FileFunction,Copper,L1,Top*%
%TF.FilePolarity,Positive*%
%FSLAX46Y46*%
G04 Gerber Fmt 4.6, Leading zero omitted, Abs format (unit mm)*
G04 Created by KiCad (PCBNEW 9.0.7) date 2026-03-09 10:21:59*
%MOMM*%
%LPD*%
G01*
G04 APERTURE LIST*
%TA.AperFunction,ComponentPad*%
%ADD10C,1.400000*%
%TD*%
%TA.AperFunction,ComponentPad*%
%ADD11C,1.700000*%
%TD*%
%TA.AperFunction,SMDPad,CuDef*%
%ADD12R,2.540000X3.510000*%
%TD*%
%TA.AperFunction,ComponentPad*%
%ADD13R,1.800000X1.800000*%
%TD*%
%TA.AperFunction,ComponentPad*%
%ADD14C,1.800000*%
%TD*%
%TA.AperFunction,Conductor*%
%ADD15C,0.200000*%
%TD*%
G04 APERTURE END LIST*
D10*
%TO.P,R1,1*%
%TO.N,Net-(SW1A-A)*%
X139700000Y-90678000D03*
%TO.P,R1,2*%
%TO.N,Net-(D1-A)*%
X139700000Y-98298000D03*
%TD*%
D11*
%TO.P,SW1,2,B*%
%TO.N,/BAT-*%
X151205000Y-96738000D03*
X144705000Y-96738000D03*
%TO.P,SW1,1,A*%
%TO.N,Net-(SW1A-A)*%
X151205000Y-92238000D03*
X144705000Y-92238000D03*
%TD*%
D12*
%TO.P,BT1,1,+*%
%TO.N,/BAT+*%
X156770000Y-95377000D03*
%TO.P,BT1,2,-*%
%TO.N,/BAT-*%
X186130000Y-95377000D03*
%TD*%
D13*
%TO.P,D1,1,K*%
%TO.N,/BAT+*%
X129794000Y-93213000D03*
D14*
%TO.P,D1,2,A*%
%TO.N,Net-(D1-A)*%
X129794000Y-95753000D03*
%TD*%
D15*
%TO.N,/BAT-*%
X186130000Y-95377000D02*
X186130000Y-95250000D01*
X152273000Y-97790000D02*
X183717000Y-97790000D01*
X151205000Y-96738000D02*
X151221000Y-96738000D01*
X151221000Y-96738000D02*
X152273000Y-97790000D01*
X151205000Y-96738000D02*
X144705000Y-96738000D01*
X183717000Y-97790000D02*
X186130000Y-95377000D01*
%TO.N,Net-(D1-A)*%
X130175000Y-95753000D02*
X129794000Y-95753000D01*
X139700000Y-98298000D02*
X139700000Y-98425000D01*
X129794000Y-95753000D02*
X132339000Y-98298000D01*
X132339000Y-98298000D02*
X139700000Y-98298000D01*
%TO.N,Net-(SW1A-A)*%
X139700000Y-90805000D02*
X139827000Y-90678000D01*
X151205000Y-92238000D02*
X151205000Y-92365000D01*
X144705000Y-92238000D02*
X151205000Y-92238000D01*
X143145000Y-90678000D02*
X144705000Y-92238000D01*
X139827000Y-90678000D02*
X143145000Y-90678000D01*
%TO.N,/BAT+*%
X136398000Y-91186000D02*
X140462000Y-95250000D01*
X129794000Y-93213000D02*
X131821000Y-91186000D01*
X140462000Y-95250000D02*
X156770000Y-95250000D01*
X131821000Y-91186000D02*
X136398000Y-91186000D01*
%TD*%
%TA.AperFunction,Conductor*%
%TO.N,/BAT-*%
G36*
X171859247Y-83277715D02*
G01*
X171866240Y-83277956D01*
X172540178Y-83320432D01*
X172547150Y-83321071D01*
X173217596Y-83401850D01*
X173224581Y-83402895D01*
X173889268Y-83521700D01*
X173896183Y-83523140D01*
X174553050Y-83679600D01*
X174559844Y-83681424D01*
X175206760Y-83875036D01*
X175213452Y-83877248D01*
X175848284Y-84107371D01*
X175854838Y-84109961D01*
X176475533Y-84375852D01*
X176481925Y-84378809D01*
X177086484Y-84679612D01*
X177092710Y-84682934D01*
X177679141Y-85017656D01*
X177685160Y-85021322D01*
X178251613Y-85388908D01*
X178257399Y-85392902D01*
X178741088Y-85747485D01*
X178801997Y-85792136D01*
X178807568Y-85796470D01*
X178937893Y-85903933D01*
X179328528Y-86226041D01*
X179333847Y-86230687D01*
X179829517Y-86689233D01*
X179834563Y-86694175D01*
X180303321Y-87180195D01*
X180308077Y-87185416D01*
X180748400Y-87697330D01*
X180752851Y-87702814D01*
X181163322Y-88238978D01*
X181167454Y-88244706D01*
X181272544Y-88399500D01*
X181467042Y-88685989D01*
X181546718Y-88803348D01*
X181550515Y-88809297D01*
X181887251Y-89371741D01*
X181897376Y-89388652D01*
X181900830Y-89394813D01*
X182214138Y-89992969D01*
X182217235Y-89999316D01*
X182481657Y-90582735D01*
X182482388Y-90584378D01*
X182486092Y-90592876D01*
X182492606Y-90617186D01*
X182509262Y-90646037D01*
X182512055Y-90652443D01*
X182512092Y-90652738D01*
X182512736Y-90654037D01*
X182522912Y-90678306D01*
X182522914Y-90678308D01*
X182522915Y-90678311D01*
X182531394Y-90689261D01*
X182537361Y-90696969D01*
X182542503Y-90703611D01*
X182558498Y-90731314D01*
X182582664Y-90755480D01*
X182587467Y-90761683D01*
X182587472Y-90761689D01*
X182603595Y-90782512D01*
X182629062Y-90801878D01*
X182651684Y-90824500D01*
X182681284Y-90841589D01*
X182708494Y-90862281D01*
X182730325Y-90871212D01*
X182745375Y-90878592D01*
X182765812Y-90890392D01*
X182798829Y-90899238D01*
X182830466Y-90912182D01*
X182862203Y-90916219D01*
X182870318Y-90918393D01*
X182870319Y-90918394D01*
X182874729Y-90919575D01*
X182893106Y-90924500D01*
X182919428Y-90924500D01*
X182935075Y-90925491D01*
X182940342Y-90926161D01*
X182961196Y-90928814D01*
X182984579Y-90925632D01*
X183001297Y-90924500D01*
X187640108Y-90924500D01*
X187693789Y-90924500D01*
X187717980Y-90926883D01*
X187733278Y-90929926D01*
X187777933Y-90948411D01*
X187779085Y-90949180D01*
X187780555Y-90950162D01*
X187789978Y-90959585D01*
X187795189Y-90962311D01*
X187798475Y-90968082D01*
X187814837Y-90984444D01*
X187815462Y-90985379D01*
X187816588Y-90987066D01*
X187835072Y-91031713D01*
X187838116Y-91047018D01*
X187840500Y-91071210D01*
X187840500Y-93079454D01*
X187820815Y-93146493D01*
X187768011Y-93192248D01*
X187698853Y-93202192D01*
X187650313Y-93182088D01*
X187649872Y-93182897D01*
X187642356Y-93178792D01*
X187642197Y-93178727D01*
X187642093Y-93178649D01*
X187642086Y-93178645D01*
X187507379Y-93128403D01*
X187507372Y-93128401D01*
X187447844Y-93122000D01*
X186380000Y-93122000D01*
X186380000Y-97632000D01*
X187447828Y-97632000D01*
X187447844Y-97631999D01*
X187507372Y-97625598D01*
X187507379Y-97625596D01*
X187642086Y-97575354D01*
X187642089Y-97575352D01*
X187642188Y-97575279D01*
X187642302Y-97575236D01*
X187649872Y-97571103D01*
X187650466Y-97572191D01*
X187707652Y-97550861D01*
X187775925Y-97565712D01*
X187825331Y-97615117D01*
X187840500Y-97674545D01*
X187840500Y-99431242D01*
X187838973Y-99450641D01*
X187830773Y-99502411D01*
X187818785Y-99539307D01*
X187799474Y-99577207D01*
X187776670Y-99608593D01*
X187746593Y-99638670D01*
X187715207Y-99661474D01*
X187677307Y-99680785D01*
X187640411Y-99692773D01*
X187610068Y-99697579D01*
X187588639Y-99700973D01*
X187569243Y-99702500D01*
X182914417Y-99702500D01*
X182883232Y-99698191D01*
X182848799Y-99702500D01*
X182814107Y-99702500D01*
X182814105Y-99702500D01*
X182814099Y-99702501D01*
X182791935Y-99708439D01*
X182775249Y-99711703D01*
X182752468Y-99714554D01*
X182727481Y-99724717D01*
X182727480Y-99724716D01*
X182720312Y-99727631D01*
X182686813Y-99736608D01*
X182659562Y-99752340D01*
X182651662Y-99755554D01*
X182651660Y-99755556D01*
X182630394Y-99764206D01*
X182608895Y-99780485D01*
X182596047Y-99789010D01*
X182572686Y-99802498D01*
X182572683Y-99802500D01*
X182556451Y-99818732D01*
X182543633Y-99829901D01*
X182525334Y-99843757D01*
X182525332Y-99843760D01*
X182508770Y-99865058D01*
X182508769Y-99865057D01*
X182504022Y-99871161D01*
X182479499Y-99895686D01*
X182463765Y-99922936D01*
X182458530Y-99929670D01*
X182444440Y-99947792D01*
X182444438Y-99947794D01*
X182433960Y-99972639D01*
X182433263Y-99974259D01*
X182430508Y-99980539D01*
X182413607Y-100009814D01*
X182407231Y-100033607D01*
X182403447Y-100042234D01*
X182403198Y-100042529D01*
X182402725Y-100043849D01*
X182138598Y-100623391D01*
X182135483Y-100629741D01*
X181822279Y-101224547D01*
X181818806Y-101230708D01*
X181472221Y-101806654D01*
X181468403Y-101812608D01*
X181089534Y-102367873D01*
X181085383Y-102373599D01*
X180675470Y-102906361D01*
X180670999Y-102911841D01*
X180231380Y-103420363D01*
X180226610Y-103425572D01*
X179758700Y-103908215D01*
X179753645Y-103913140D01*
X179258993Y-104368307D01*
X179253654Y-104372946D01*
X178733853Y-104799173D01*
X178728258Y-104803500D01*
X178185009Y-105199392D01*
X178179176Y-105203393D01*
X177614218Y-105567680D01*
X177608168Y-105571341D01*
X177023387Y-105902810D01*
X177017137Y-105906121D01*
X176414391Y-106203719D01*
X176407962Y-106206668D01*
X175789244Y-106469409D01*
X175782658Y-106471987D01*
X175149953Y-106699031D01*
X175143230Y-106701229D01*
X174498609Y-106891830D01*
X174491773Y-106893641D01*
X173837351Y-107047175D01*
X173830422Y-107048594D01*
X173168286Y-107164571D01*
X173161287Y-107165592D01*
X172493624Y-107243629D01*
X172486579Y-107244249D01*
X171815569Y-107284090D01*
X171808499Y-107284308D01*
X171136286Y-107285828D01*
X171129216Y-107285642D01*
X171104890Y-107284308D01*
X171068551Y-107282315D01*
X170458016Y-107248834D01*
X170450968Y-107248245D01*
X169782978Y-107173230D01*
X169775975Y-107172241D01*
X169113331Y-107059261D01*
X169106395Y-107057874D01*
X168451269Y-106907296D01*
X168444425Y-106905516D01*
X167798950Y-106717833D01*
X167792217Y-106715665D01*
X167748576Y-106700227D01*
X167550523Y-106630165D01*
X167158493Y-106491484D01*
X167151896Y-106488936D01*
X166531994Y-106228994D01*
X166525551Y-106226074D01*
X165921479Y-105931210D01*
X165915215Y-105927928D01*
X165435033Y-105658611D01*
X165328902Y-105599085D01*
X165322863Y-105595468D01*
X164756265Y-105233739D01*
X164750421Y-105229769D01*
X164734454Y-105218243D01*
X164205376Y-104836328D01*
X164199769Y-104832033D01*
X164164649Y-104803500D01*
X163678040Y-104408156D01*
X163672682Y-104403543D01*
X163175976Y-103950616D01*
X163170888Y-103945703D01*
X162700827Y-103465207D01*
X162696027Y-103460013D01*
X162254107Y-102953477D01*
X162249611Y-102948017D01*
X161837289Y-102417109D01*
X161833120Y-102411413D01*
X161451738Y-101857857D01*
X161447899Y-101851930D01*
X161098687Y-101277514D01*
X161095211Y-101271410D01*
X160779316Y-100678017D01*
X160776187Y-100671712D01*
X160523398Y-100123629D01*
X160516040Y-100103094D01*
X160504915Y-100060579D01*
X160439693Y-99946067D01*
X160399991Y-99905896D01*
X160347059Y-99852340D01*
X160347058Y-99852339D01*
X160347055Y-99852336D01*
X160233315Y-99785776D01*
X160106223Y-99750923D01*
X160039638Y-99750532D01*
X160039638Y-99750531D01*
X160032554Y-99750489D01*
X160027361Y-99749864D01*
X160023350Y-99750436D01*
X160014178Y-99750383D01*
X160014177Y-99750382D01*
X160014177Y-99750383D01*
X140237132Y-99634466D01*
X140170209Y-99614389D01*
X140124765Y-99561317D01*
X140115227Y-99492102D01*
X140144624Y-99428717D01*
X140181565Y-99399983D01*
X140329197Y-99324761D01*
X140329196Y-99324761D01*
X140329199Y-99324760D01*
X140482073Y-99213690D01*
X140615690Y-99080073D01*
X140726760Y-98927199D01*
X140812547Y-98758832D01*
X140870940Y-98579118D01*
X140900500Y-98392486D01*
X140900500Y-98203513D01*
X140870940Y-98016881D01*
X140817779Y-97853270D01*
X140812547Y-97837168D01*
X140726760Y-97668801D01*
X140615690Y-97515927D01*
X140482073Y-97382310D01*
X140329199Y-97271240D01*
X140299715Y-97256217D01*
X140160836Y-97185454D01*
X139981118Y-97127059D01*
X139794486Y-97097500D01*
X139794481Y-97097500D01*
X139605519Y-97097500D01*
X139605514Y-97097500D01*
X139418881Y-97127059D01*
X139239163Y-97185454D01*
X139070800Y-97271240D01*
X138983579Y-97334610D01*
X138917927Y-97382310D01*
X138917925Y-97382312D01*
X138917924Y-97382312D01*
X138784312Y-97515924D01*
X138784312Y-97515925D01*
X138784310Y-97515927D01*
X138689526Y-97646386D01*
X138634196Y-97689051D01*
X138589208Y-97697500D01*
X132639098Y-97697500D01*
X132572059Y-97677815D01*
X132551417Y-97661181D01*
X131167438Y-96277203D01*
X131133953Y-96215880D01*
X131137187Y-96151205D01*
X131160015Y-96080951D01*
X131194500Y-95863222D01*
X131194500Y-95642778D01*
X131160015Y-95425049D01*
X131125955Y-95320221D01*
X131091896Y-95215396D01*
X131091895Y-95215393D01*
X131057237Y-95147375D01*
X130991815Y-95018978D01*
X130924260Y-94925996D01*
X130862247Y-94840641D01*
X130862243Y-94840636D01*
X130812071Y-94790464D01*
X130778586Y-94729141D01*
X130783570Y-94659449D01*
X130825442Y-94603516D01*
X130856420Y-94586601D01*
X130936326Y-94556798D01*
X130936326Y-94556797D01*
X130936331Y-94556796D01*
X131051546Y-94470546D01*
X131137796Y-94355331D01*
X131142845Y-94341793D01*
X132971623Y-94341793D01*
X132971623Y-94624452D01*
X132971624Y-94624469D01*
X133008517Y-94904703D01*
X133008518Y-94904708D01*
X133008519Y-94904714D01*
X133039135Y-95018974D01*
X133081680Y-95177757D01*
X133164092Y-95376717D01*
X133189854Y-95438911D01*
X133331191Y-95683712D01*
X133331196Y-95683718D01*
X133331197Y-95683720D01*
X133503269Y-95907970D01*
X133503275Y-95907977D01*
X133703145Y-96107847D01*
X133703152Y-96107853D01*
X133759646Y-96151202D01*
X133927411Y-96279932D01*
X134172212Y-96421269D01*
X134173661Y-96421869D01*
X134433365Y-96529442D01*
X134433366Y-96529442D01*
X134433368Y-96529443D01*
X134706409Y-96602604D01*
X134986664Y-96639500D01*
X134986671Y-96639500D01*
X135269329Y-96639500D01*
X135269336Y-96639500D01*
X135549591Y-96602604D01*
X135822632Y-96529443D01*
X136083788Y-96421269D01*
X136328589Y-96279932D01*
X136552849Y-96107852D01*
X136752729Y-95907972D01*
X136924809Y-95683712D01*
X137066146Y-95438911D01*
X137174320Y-95177755D01*
X137247481Y-94904714D01*
X137284377Y-94624459D01*
X137284377Y-94341787D01*
X137247481Y-94061532D01*
X137174320Y-93788491D01*
X137066146Y-93527335D01*
X136924809Y-93282534D01*
X136806161Y-93127908D01*
X136752730Y-93058275D01*
X136752724Y-93058268D01*
X136552854Y-92858398D01*
X136552847Y-92858392D01*
X136328597Y-92686320D01*
X136328595Y-92686319D01*
X136328589Y-92686314D01*
X136083788Y-92544977D01*
X136083784Y-92544975D01*
X135822634Y-92436803D01*
X135676312Y-92397596D01*
X135549591Y-92363642D01*
X135549585Y-92363641D01*
X135549580Y-92363640D01*
X135269346Y-92326747D01*
X135269341Y-92326746D01*
X135269336Y-92326746D01*
X134986664Y-92326746D01*
X134986658Y-92326746D01*
X134986653Y-92326747D01*
X134706419Y-92363640D01*
X134706412Y-92363641D01*
X134706409Y-92363642D01*
X134652848Y-92377993D01*
X134433365Y-92436803D01*
X134172215Y-92544975D01*
X134172211Y-92544977D01*
X133927411Y-92686314D01*
X133927402Y-92686320D01*
X133703152Y-92858392D01*
X133703145Y-92858398D01*
X133503275Y-93058268D01*
X133503269Y-93058275D01*
X133331197Y-93282525D01*
X133331191Y-93282534D01*
X133189854Y-93527334D01*
X133189852Y-93527338D01*
X133081680Y-93788488D01*
X133008520Y-94061529D01*
X133008517Y-94061542D01*
X132971624Y-94341776D01*
X132971623Y-94341793D01*
X131142845Y-94341793D01*
X131188091Y-94220483D01*
X131194500Y-94160873D01*
X131194499Y-92713096D01*
X131214184Y-92646058D01*
X131230818Y-92625416D01*
X132033416Y-91822819D01*
X132094739Y-91789334D01*
X132121097Y-91786500D01*
X136097903Y-91786500D01*
X136164942Y-91806185D01*
X136185584Y-91822819D01*
X139977139Y-95614374D01*
X139977149Y-95614385D01*
X139981479Y-95618715D01*
X139981480Y-95618716D01*
X140093284Y-95730520D01*
X140180095Y-95780639D01*
X140180097Y-95780641D01*
X140212684Y-95799455D01*
X140230215Y-95809577D01*
X140382943Y-95850501D01*
X140382946Y-95850501D01*
X140548653Y-95850501D01*
X140548669Y-95850500D01*
X143439714Y-95850500D01*
X143506753Y-95870185D01*
X143552508Y-95922989D01*
X143562452Y-95992147D01*
X143550199Y-96030795D01*
X143453904Y-96219782D01*
X143388242Y-96421869D01*
X143388242Y-96421872D01*
X143355000Y-96631753D01*
X143355000Y-96844246D01*
X143388242Y-97054127D01*
X143388242Y-97054130D01*
X143453904Y-97256217D01*
X143550375Y-97445550D01*
X143589728Y-97499716D01*
X144222036Y-96867407D01*
X144239075Y-96930993D01*
X144304901Y-97045007D01*
X144397993Y-97138099D01*
X144512007Y-97203925D01*
X144575590Y-97220962D01*
X143943282Y-97853269D01*
X143943282Y-97853270D01*
X143997449Y-97892624D01*
X144186782Y-97989095D01*
X144388870Y-98054757D01*
X144598754Y-98088000D01*
X144811246Y-98088000D01*
X145021127Y-98054757D01*
X145021130Y-98054757D01*
X145223217Y-97989095D01*
X145412554Y-97892622D01*
X145466716Y-97853270D01*
X145466717Y-97853270D01*
X144834408Y-97220962D01*
X144897993Y-97203925D01*
X145012007Y-97138099D01*
X145105099Y-97045007D01*
X145170925Y-96930993D01*
X145187962Y-96867409D01*
X145820270Y-97499717D01*
X145820270Y-97499716D01*
X145859622Y-97445554D01*
X145956095Y-97256217D01*
X146021757Y-97054130D01*
X146021757Y-97054127D01*
X146055000Y-96844246D01*
X146055000Y-96631753D01*
X146021757Y-96421872D01*
X146021757Y-96421869D01*
X145956095Y-96219782D01*
X145859801Y-96030795D01*
X145846905Y-95962126D01*
X145873181Y-95897385D01*
X145930288Y-95857128D01*
X145970286Y-95850500D01*
X149939714Y-95850500D01*
X150006753Y-95870185D01*
X150052508Y-95922989D01*
X150062452Y-95992147D01*
X150050199Y-96030795D01*
X149953904Y-96219782D01*
X149888242Y-96421869D01*
X149888242Y-96421872D01*
X149855000Y-96631753D01*
X149855000Y-96844246D01*
X149888242Y-97054127D01*
X149888242Y-97054130D01*
X149953904Y-97256217D01*
X150050375Y-97445550D01*
X150089728Y-97499716D01*
X150722036Y-96867407D01*
X150739075Y-96930993D01*
X150804901Y-97045007D01*
X150897993Y-97138099D01*
X151012007Y-97203925D01*
X151075590Y-97220962D01*
X150443282Y-97853269D01*
X150443282Y-97853270D01*
X150497449Y-97892624D01*
X150686782Y-97989095D01*
X150888870Y-98054757D01*
X151098754Y-98088000D01*
X151311246Y-98088000D01*
X151521127Y-98054757D01*
X151521130Y-98054757D01*
X151723217Y-97989095D01*
X151912554Y-97892622D01*
X151966716Y-97853270D01*
X151966717Y-97853270D01*
X151334408Y-97220962D01*
X151397993Y-97203925D01*
X151512007Y-97138099D01*
X151605099Y-97045007D01*
X151670925Y-96930993D01*
X151687962Y-96867409D01*
X152320270Y-97499717D01*
X152320270Y-97499716D01*
X152359622Y-97445554D01*
X152456095Y-97256217D01*
X152521757Y-97054130D01*
X152521757Y-97054127D01*
X152555000Y-96844246D01*
X152555000Y-96631753D01*
X152521757Y-96421872D01*
X152521757Y-96421869D01*
X152456095Y-96219782D01*
X152359801Y-96030795D01*
X152346905Y-95962126D01*
X152373181Y-95897385D01*
X152430288Y-95857128D01*
X152470286Y-95850500D01*
X154875501Y-95850500D01*
X154942540Y-95870185D01*
X154988295Y-95922989D01*
X154999501Y-95974500D01*
X154999501Y-97179876D01*
X155005908Y-97239483D01*
X155056202Y-97374328D01*
X155056206Y-97374335D01*
X155142452Y-97489544D01*
X155142455Y-97489547D01*
X155257664Y-97575793D01*
X155257671Y-97575797D01*
X155392517Y-97626091D01*
X155392516Y-97626091D01*
X155399444Y-97626835D01*
X155452127Y-97632500D01*
X158087872Y-97632499D01*
X158147483Y-97626091D01*
X158282331Y-97575796D01*
X158397546Y-97489546D01*
X158483796Y-97374331D01*
X158534091Y-97239483D01*
X158540500Y-97179873D01*
X158540500Y-97179844D01*
X184360000Y-97179844D01*
X184366401Y-97239372D01*
X184366403Y-97239379D01*
X184416645Y-97374086D01*
X184416649Y-97374093D01*
X184502809Y-97489187D01*
X184502812Y-97489190D01*
X184617906Y-97575350D01*
X184617913Y-97575354D01*
X184752620Y-97625596D01*
X184752627Y-97625598D01*
X184812155Y-97631999D01*
X184812172Y-97632000D01*
X185880000Y-97632000D01*
X185880000Y-95627000D01*
X184360000Y-95627000D01*
X184360000Y-97179844D01*
X158540500Y-97179844D01*
X158540499Y-95376717D01*
X158540499Y-93574155D01*
X184360000Y-93574155D01*
X184360000Y-95127000D01*
X185880000Y-95127000D01*
X185880000Y-93122000D01*
X184812155Y-93122000D01*
X184752627Y-93128401D01*
X184752620Y-93128403D01*
X184617913Y-93178645D01*
X184617906Y-93178649D01*
X184502812Y-93264809D01*
X184502809Y-93264812D01*
X184416649Y-93379906D01*
X184416645Y-93379913D01*
X184366403Y-93514620D01*
X184366401Y-93514627D01*
X184360000Y-93574155D01*
X158540499Y-93574155D01*
X158540499Y-93574129D01*
X158540498Y-93574123D01*
X158540497Y-93574116D01*
X158534091Y-93514517D01*
X158527931Y-93498002D01*
X158483797Y-93379671D01*
X158483793Y-93379664D01*
X158397547Y-93264455D01*
X158397544Y-93264452D01*
X158282335Y-93178206D01*
X158282328Y-93178202D01*
X158147482Y-93127908D01*
X158147483Y-93127908D01*
X158087883Y-93121501D01*
X158087881Y-93121500D01*
X158087873Y-93121500D01*
X158087864Y-93121500D01*
X155452129Y-93121500D01*
X155452123Y-93121501D01*
X155392516Y-93127908D01*
X155257671Y-93178202D01*
X155257664Y-93178206D01*
X155142455Y-93264452D01*
X155142452Y-93264455D01*
X155056206Y-93379664D01*
X155056202Y-93379671D01*
X155005908Y-93514517D01*
X155001530Y-93555246D01*
X154999501Y-93574123D01*
X154999500Y-93574135D01*
X154999500Y-94525500D01*
X154979815Y-94592539D01*
X154927011Y-94638294D01*
X154875500Y-94649500D01*
X140762097Y-94649500D01*
X140695058Y-94629815D01*
X140674416Y-94613181D01*
X136885590Y-90824355D01*
X136885588Y-90824352D01*
X136766717Y-90705481D01*
X136766716Y-90705480D01*
X136679904Y-90655360D01*
X136679904Y-90655359D01*
X136679900Y-90655358D01*
X136629785Y-90626423D01*
X136477057Y-90585499D01*
X136318943Y-90585499D01*
X136311347Y-90585499D01*
X136311331Y-90585500D01*
X131907669Y-90585500D01*
X131907653Y-90585499D01*
X131900057Y-90585499D01*
X131741943Y-90585499D01*
X131634587Y-90614265D01*
X131589210Y-90626424D01*
X131589209Y-90626425D01*
X131539096Y-90655359D01*
X131539095Y-90655360D01*
X131499351Y-90678306D01*
X131452285Y-90705479D01*
X131452282Y-90705481D01*
X131340478Y-90817286D01*
X130381582Y-91776181D01*
X130320259Y-91809666D01*
X130293901Y-91812500D01*
X128846129Y-91812500D01*
X128846123Y-91812501D01*
X128786516Y-91818908D01*
X128651671Y-91869202D01*
X128651664Y-91869206D01*
X128536455Y-91955452D01*
X128536452Y-91955455D01*
X128450206Y-92070664D01*
X128450202Y-92070671D01*
X128399908Y-92205517D01*
X128393501Y-92265116D01*
X128393500Y-92265135D01*
X128393500Y-94160870D01*
X128393501Y-94160876D01*
X128399908Y-94220483D01*
X128450202Y-94355328D01*
X128450206Y-94355335D01*
X128536452Y-94470544D01*
X128536455Y-94470547D01*
X128651664Y-94556793D01*
X128651671Y-94556797D01*
X128731580Y-94586601D01*
X128787514Y-94628472D01*
X128811931Y-94693936D01*
X128797080Y-94762209D01*
X128775929Y-94790463D01*
X128725756Y-94840636D01*
X128725752Y-94840641D01*
X128596187Y-95018974D01*
X128496104Y-95215393D01*
X128496103Y-95215396D01*
X128427985Y-95425047D01*
X128397311Y-95618716D01*
X128393500Y-95642778D01*
X128393500Y-95863222D01*
X128400588Y-95907972D01*
X128427985Y-96080952D01*
X128496103Y-96290603D01*
X128496104Y-96290606D01*
X128520203Y-96337901D01*
X128567636Y-96430993D01*
X128596187Y-96487025D01*
X128725752Y-96665358D01*
X128725756Y-96665363D01*
X128881636Y-96821243D01*
X128881641Y-96821247D01*
X128913297Y-96844246D01*
X129059978Y-96950815D01*
X129188375Y-97016237D01*
X129256393Y-97050895D01*
X129256396Y-97050896D01*
X129323525Y-97072707D01*
X129466049Y-97119015D01*
X129683778Y-97153500D01*
X129683779Y-97153500D01*
X129904221Y-97153500D01*
X129904222Y-97153500D01*
X130121951Y-97119015D01*
X130192205Y-97096187D01*
X130262044Y-97094192D01*
X130318202Y-97126437D01*
X131970284Y-98778520D01*
X131970286Y-98778521D01*
X131970290Y-98778524D01*
X132107209Y-98857573D01*
X132107216Y-98857577D01*
X132259943Y-98898501D01*
X132259945Y-98898501D01*
X132425654Y-98898501D01*
X132425670Y-98898500D01*
X138589208Y-98898500D01*
X138656247Y-98918185D01*
X138689524Y-98949612D01*
X138784310Y-99080073D01*
X138917927Y-99213690D01*
X139070801Y-99324760D01*
X139169615Y-99375108D01*
X139205917Y-99393605D01*
X139256713Y-99441580D01*
X139273508Y-99509401D01*
X139250971Y-99575536D01*
X139196256Y-99618987D01*
X139148895Y-99628088D01*
X130251639Y-99575939D01*
X130251633Y-99575939D01*
X130242327Y-99575884D01*
X130240892Y-99575500D01*
X130177325Y-99575500D01*
X130176986Y-99575498D01*
X130176935Y-99575482D01*
X130172310Y-99575382D01*
X129737002Y-99556377D01*
X129726225Y-99555434D01*
X129296934Y-99498915D01*
X129286282Y-99497037D01*
X128896144Y-99410547D01*
X128863541Y-99403319D01*
X128853098Y-99400521D01*
X128440131Y-99270312D01*
X128429968Y-99266613D01*
X128029928Y-99100911D01*
X128020124Y-99096339D01*
X127636057Y-98896406D01*
X127626689Y-98890998D01*
X127261492Y-98658342D01*
X127252631Y-98652137D01*
X126909110Y-98388544D01*
X126900823Y-98381590D01*
X126581585Y-98089063D01*
X126573936Y-98081414D01*
X126281409Y-97762176D01*
X126274455Y-97753889D01*
X126010862Y-97410368D01*
X126004657Y-97401507D01*
X125878783Y-97203925D01*
X125772000Y-97036309D01*
X125766593Y-97026942D01*
X125716645Y-96930993D01*
X125566657Y-96642868D01*
X125562088Y-96633071D01*
X125556841Y-96620403D01*
X125396380Y-96233016D01*
X125392691Y-96222881D01*
X125262473Y-95809886D01*
X125259684Y-95799474D01*
X125165962Y-95376717D01*
X125164084Y-95366065D01*
X125163507Y-95361679D01*
X125107563Y-94936754D01*
X125106623Y-94926015D01*
X125087736Y-94493405D01*
X125087736Y-94482592D01*
X125088262Y-94470544D01*
X125106623Y-94049982D01*
X125107563Y-94039247D01*
X125164084Y-93609930D01*
X125165962Y-93599282D01*
X125168352Y-93588500D01*
X125259685Y-93176519D01*
X125262472Y-93166119D01*
X125392693Y-92753111D01*
X125396377Y-92742990D01*
X125562094Y-92342913D01*
X125566652Y-92333139D01*
X125766599Y-91949045D01*
X125771994Y-91939700D01*
X126004664Y-91574481D01*
X126010854Y-91565642D01*
X126274462Y-91222101D01*
X126281400Y-91213832D01*
X126573947Y-90894573D01*
X126581573Y-90886947D01*
X126900832Y-90594400D01*
X126909101Y-90587462D01*
X127252642Y-90323854D01*
X127261481Y-90317664D01*
X127626700Y-90084994D01*
X127636045Y-90079599D01*
X128020139Y-89879652D01*
X128029913Y-89875094D01*
X128429990Y-89709377D01*
X128440111Y-89705693D01*
X128853119Y-89575472D01*
X128863519Y-89572685D01*
X129286286Y-89478961D01*
X129296930Y-89477084D01*
X129726247Y-89420563D01*
X129736980Y-89419623D01*
X130171992Y-89400630D01*
X130177848Y-89400514D01*
X138988088Y-89434409D01*
X139055051Y-89454351D01*
X139100603Y-89507331D01*
X139110280Y-89576527D01*
X139081011Y-89639971D01*
X139060497Y-89658726D01*
X138917925Y-89762311D01*
X138784312Y-89895924D01*
X138784312Y-89895925D01*
X138784310Y-89895927D01*
X138776946Y-89906063D01*
X138673240Y-90048800D01*
X138587454Y-90217163D01*
X138529059Y-90396881D01*
X138499500Y-90583513D01*
X138499500Y-90772486D01*
X138529059Y-90959118D01*
X138587454Y-91138836D01*
X138627698Y-91217818D01*
X138673240Y-91307199D01*
X138784310Y-91460073D01*
X138917927Y-91593690D01*
X139070801Y-91704760D01*
X139099897Y-91719585D01*
X139239163Y-91790545D01*
X139239165Y-91790545D01*
X139239168Y-91790547D01*
X139326454Y-91818908D01*
X139418881Y-91848940D01*
X139605514Y-91878500D01*
X139605519Y-91878500D01*
X139794486Y-91878500D01*
X139981118Y-91848940D01*
X140160832Y-91790547D01*
X140329199Y-91704760D01*
X140482073Y-91593690D01*
X140615690Y-91460073D01*
X140710475Y-91329613D01*
X140765804Y-91286949D01*
X140810792Y-91278500D01*
X142844903Y-91278500D01*
X142911942Y-91298185D01*
X142932584Y-91314819D01*
X143371241Y-91753476D01*
X143404726Y-91814799D01*
X143401492Y-91879473D01*
X143387753Y-91921757D01*
X143364169Y-92070664D01*
X143354500Y-92131713D01*
X143354500Y-92344287D01*
X143387754Y-92554243D01*
X143422680Y-92661735D01*
X143453444Y-92756414D01*
X143549951Y-92945820D01*
X143674890Y-93117786D01*
X143825213Y-93268109D01*
X143997179Y-93393048D01*
X143997181Y-93393049D01*
X143997184Y-93393051D01*
X144186588Y-93489557D01*
X144388757Y-93555246D01*
X144598713Y-93588500D01*
X144598714Y-93588500D01*
X144811286Y-93588500D01*
X144811287Y-93588500D01*
X145021243Y-93555246D01*
X145223412Y-93489557D01*
X145412816Y-93393051D01*
X145497799Y-93331308D01*
X145584786Y-93268109D01*
X145584788Y-93268106D01*
X145584792Y-93268104D01*
X145735104Y-93117792D01*
X145735106Y-93117788D01*
X145735109Y-93117786D01*
X145793661Y-93037193D01*
X145860051Y-92945816D01*
X145860349Y-92945230D01*
X145880235Y-92906205D01*
X145928209Y-92855409D01*
X145990719Y-92838500D01*
X149919281Y-92838500D01*
X149986320Y-92858185D01*
X150029765Y-92906205D01*
X150049947Y-92945814D01*
X150049948Y-92945815D01*
X150174890Y-93117786D01*
X150325213Y-93268109D01*
X150497179Y-93393048D01*
X150497181Y-93393049D01*
X150497184Y-93393051D01*
X150686588Y-93489557D01*
X150888757Y-93555246D01*
X151098713Y-93588500D01*
X151098714Y-93588500D01*
X151311286Y-93588500D01*
X151311287Y-93588500D01*
X151521243Y-93555246D01*
X151723412Y-93489557D01*
X151912816Y-93393051D01*
X151997799Y-93331308D01*
X152084786Y-93268109D01*
X152084788Y-93268106D01*
X152084792Y-93268104D01*
X152235104Y-93117792D01*
X152235106Y-93117788D01*
X152235109Y-93117786D01*
X152360048Y-92945820D01*
X152360047Y-92945820D01*
X152360051Y-92945816D01*
X152456557Y-92756412D01*
X152522246Y-92554243D01*
X152555500Y-92344287D01*
X152555500Y-92131713D01*
X152522246Y-91921757D01*
X152456557Y-91719588D01*
X152360051Y-91530184D01*
X152360049Y-91530181D01*
X152360048Y-91530179D01*
X152235109Y-91358213D01*
X152084786Y-91207890D01*
X151912820Y-91082951D01*
X151723414Y-90986444D01*
X151723413Y-90986443D01*
X151723412Y-90986443D01*
X151521243Y-90920754D01*
X151521241Y-90920753D01*
X151521240Y-90920753D01*
X151356020Y-90894585D01*
X151311287Y-90887500D01*
X151098713Y-90887500D01*
X151053980Y-90894585D01*
X150888760Y-90920753D01*
X150686585Y-90986444D01*
X150497179Y-91082951D01*
X150325213Y-91207890D01*
X150174890Y-91358213D01*
X150049948Y-91530184D01*
X150049947Y-91530185D01*
X150029765Y-91569795D01*
X149981791Y-91620591D01*
X149919281Y-91637500D01*
X145990719Y-91637500D01*
X145923680Y-91617815D01*
X145880235Y-91569795D01*
X145860052Y-91530185D01*
X145860051Y-91530184D01*
X145735109Y-91358213D01*
X145584786Y-91207890D01*
X145412820Y-91082951D01*
X145223414Y-90986444D01*
X145223413Y-90986443D01*
X145223412Y-90986443D01*
X145021243Y-90920754D01*
X145021241Y-90920753D01*
X145021240Y-90920753D01*
X144856020Y-90894585D01*
X144811287Y-90887500D01*
X144598713Y-90887500D01*
X144570006Y-90892046D01*
X144388757Y-90920753D01*
X144346473Y-90934492D01*
X144276632Y-90936486D01*
X144220476Y-90904241D01*
X143632590Y-90316355D01*
X143632588Y-90316352D01*
X143513717Y-90197481D01*
X143513716Y-90197480D01*
X143406948Y-90135838D01*
X143406947Y-90135837D01*
X143376783Y-90118422D01*
X143320881Y-90103443D01*
X143224057Y-90077499D01*
X143065943Y-90077499D01*
X143058347Y-90077499D01*
X143058331Y-90077500D01*
X140810792Y-90077500D01*
X140743753Y-90057815D01*
X140710474Y-90026386D01*
X140615690Y-89895927D01*
X140482073Y-89762310D01*
X140400314Y-89702908D01*
X140347087Y-89664236D01*
X140304422Y-89608905D01*
X140298443Y-89539292D01*
X140331049Y-89477497D01*
X140391888Y-89443140D01*
X140420444Y-89439919D01*
X160571322Y-89517444D01*
X160572432Y-89517741D01*
X160637285Y-89517698D01*
X160701960Y-89517947D01*
X160701964Y-89517945D01*
X160701989Y-89517946D01*
X160702964Y-89517818D01*
X160702975Y-89517817D01*
X160704203Y-89517654D01*
X160704216Y-89517654D01*
X160766743Y-89500855D01*
X160829384Y-89484329D01*
X160829396Y-89484322D01*
X160830731Y-89483776D01*
X160830731Y-89483775D01*
X160830736Y-89483774D01*
X160831459Y-89483477D01*
X160831485Y-89483461D01*
X160831488Y-89483461D01*
X160887626Y-89451000D01*
X160943764Y-89418876D01*
X160944561Y-89418083D01*
X160945557Y-89417508D01*
X160945568Y-89417496D01*
X160945573Y-89417494D01*
X160991493Y-89371513D01*
X161037308Y-89326050D01*
X161037875Y-89325074D01*
X161038691Y-89324258D01*
X161049322Y-89305813D01*
X161070732Y-89268672D01*
X161072493Y-89265716D01*
X161427225Y-88688974D01*
X161431066Y-88683110D01*
X161817016Y-88128996D01*
X161821208Y-88123330D01*
X161869964Y-88061198D01*
X162238062Y-87592111D01*
X162242550Y-87586714D01*
X162689011Y-87080044D01*
X162693783Y-87074930D01*
X163168361Y-86594508D01*
X163173408Y-86589682D01*
X163674559Y-86137065D01*
X163679922Y-86132493D01*
X164097502Y-85796472D01*
X164206000Y-85709165D01*
X164211592Y-85704921D01*
X164760961Y-85312201D01*
X164766763Y-85308298D01*
X165337619Y-84947480D01*
X165343616Y-84943925D01*
X165934058Y-84616212D01*
X165940302Y-84612975D01*
X166548435Y-84319412D01*
X166554822Y-84316550D01*
X167178695Y-84058081D01*
X167185257Y-84055580D01*
X167822829Y-83833051D01*
X167829507Y-83830932D01*
X168478707Y-83645065D01*
X168485484Y-83643332D01*
X169144226Y-83494726D01*
X169151099Y-83493379D01*
X169817235Y-83382517D01*
X169824209Y-83381560D01*
X170495523Y-83308810D01*
X170502539Y-83308250D01*
X171176919Y-83273836D01*
X171183972Y-83273678D01*
X171859247Y-83277715D01*
G37*
%TD.AperFunction*%
%TD*%
M02*
