%TF.GenerationSoftware,KiCad,Pcbnew,9.0.7*%
%TF.CreationDate,2026-03-08T15:02:54+01:00*%
%TF.ProjectId,Led_Torch,4c65645f-546f-4726-9368-2e6b69636164,1.0*%
%TF.SameCoordinates,Original*%
%TF.FileFunction,Legend,Top*%
%TF.FilePolarity,Positive*%
%FSLAX46Y46*%
G04 Gerber Fmt 4.6, Leading zero omitted, Abs format (unit mm)*
G04 Created by KiCad (PCBNEW 9.0.7) date 2026-03-08 15:02:54*
%MOMM*%
%LPD*%
G01*
G04 APERTURE LIST*
%ADD10C,0.100000*%
%ADD11C,0.150000*%
%ADD12C,0.120000*%
G04 APERTURE END LIST*
D10*
X130379115Y-98298533D02*
X129617211Y-98298533D01*
X129843884Y-91312466D02*
X130605789Y-91312466D01*
X130224836Y-91693419D02*
X130224836Y-90931514D01*
D11*
X127785905Y-91259819D02*
X127785905Y-90259819D01*
X127785905Y-90259819D02*
X128024000Y-90259819D01*
X128024000Y-90259819D02*
X128166857Y-90307438D01*
X128166857Y-90307438D02*
X128262095Y-90402676D01*
X128262095Y-90402676D02*
X128309714Y-90497914D01*
X128309714Y-90497914D02*
X128357333Y-90688390D01*
X128357333Y-90688390D02*
X128357333Y-90831247D01*
X128357333Y-90831247D02*
X128309714Y-91021723D01*
X128309714Y-91021723D02*
X128262095Y-91116961D01*
X128262095Y-91116961D02*
X128166857Y-91212200D01*
X128166857Y-91212200D02*
X128024000Y-91259819D01*
X128024000Y-91259819D02*
X127785905Y-91259819D01*
X129309714Y-91259819D02*
X128738286Y-91259819D01*
X129024000Y-91259819D02*
X129024000Y-90259819D01*
X129024000Y-90259819D02*
X128928762Y-90402676D01*
X128928762Y-90402676D02*
X128833524Y-90497914D01*
X128833524Y-90497914D02*
X128738286Y-90545533D01*
X141565333Y-97101819D02*
X141232000Y-96625628D01*
X140993905Y-97101819D02*
X140993905Y-96101819D01*
X140993905Y-96101819D02*
X141374857Y-96101819D01*
X141374857Y-96101819D02*
X141470095Y-96149438D01*
X141470095Y-96149438D02*
X141517714Y-96197057D01*
X141517714Y-96197057D02*
X141565333Y-96292295D01*
X141565333Y-96292295D02*
X141565333Y-96435152D01*
X141565333Y-96435152D02*
X141517714Y-96530390D01*
X141517714Y-96530390D02*
X141470095Y-96578009D01*
X141470095Y-96578009D02*
X141374857Y-96625628D01*
X141374857Y-96625628D02*
X140993905Y-96625628D01*
X142517714Y-97101819D02*
X141946286Y-97101819D01*
X142232000Y-97101819D02*
X142232000Y-96101819D01*
X142232000Y-96101819D02*
X142136762Y-96244676D01*
X142136762Y-96244676D02*
X142041524Y-96339914D01*
X142041524Y-96339914D02*
X141946286Y-96387533D01*
X169513571Y-105722009D02*
X169656428Y-105769628D01*
X169656428Y-105769628D02*
X169704047Y-105817247D01*
X169704047Y-105817247D02*
X169751666Y-105912485D01*
X169751666Y-105912485D02*
X169751666Y-106055342D01*
X169751666Y-106055342D02*
X169704047Y-106150580D01*
X169704047Y-106150580D02*
X169656428Y-106198200D01*
X169656428Y-106198200D02*
X169561190Y-106245819D01*
X169561190Y-106245819D02*
X169180238Y-106245819D01*
X169180238Y-106245819D02*
X169180238Y-105245819D01*
X169180238Y-105245819D02*
X169513571Y-105245819D01*
X169513571Y-105245819D02*
X169608809Y-105293438D01*
X169608809Y-105293438D02*
X169656428Y-105341057D01*
X169656428Y-105341057D02*
X169704047Y-105436295D01*
X169704047Y-105436295D02*
X169704047Y-105531533D01*
X169704047Y-105531533D02*
X169656428Y-105626771D01*
X169656428Y-105626771D02*
X169608809Y-105674390D01*
X169608809Y-105674390D02*
X169513571Y-105722009D01*
X169513571Y-105722009D02*
X169180238Y-105722009D01*
X170608809Y-106245819D02*
X170608809Y-105722009D01*
X170608809Y-105722009D02*
X170561190Y-105626771D01*
X170561190Y-105626771D02*
X170465952Y-105579152D01*
X170465952Y-105579152D02*
X170275476Y-105579152D01*
X170275476Y-105579152D02*
X170180238Y-105626771D01*
X170608809Y-106198200D02*
X170513571Y-106245819D01*
X170513571Y-106245819D02*
X170275476Y-106245819D01*
X170275476Y-106245819D02*
X170180238Y-106198200D01*
X170180238Y-106198200D02*
X170132619Y-106102961D01*
X170132619Y-106102961D02*
X170132619Y-106007723D01*
X170132619Y-106007723D02*
X170180238Y-105912485D01*
X170180238Y-105912485D02*
X170275476Y-105864866D01*
X170275476Y-105864866D02*
X170513571Y-105864866D01*
X170513571Y-105864866D02*
X170608809Y-105817247D01*
X170942143Y-105579152D02*
X171323095Y-105579152D01*
X171085000Y-105245819D02*
X171085000Y-106102961D01*
X171085000Y-106102961D02*
X171132619Y-106198200D01*
X171132619Y-106198200D02*
X171227857Y-106245819D01*
X171227857Y-106245819D02*
X171323095Y-106245819D01*
X171608810Y-105341057D02*
X171656429Y-105293438D01*
X171656429Y-105293438D02*
X171751667Y-105245819D01*
X171751667Y-105245819D02*
X171989762Y-105245819D01*
X171989762Y-105245819D02*
X172085000Y-105293438D01*
X172085000Y-105293438D02*
X172132619Y-105341057D01*
X172132619Y-105341057D02*
X172180238Y-105436295D01*
X172180238Y-105436295D02*
X172180238Y-105531533D01*
X172180238Y-105531533D02*
X172132619Y-105674390D01*
X172132619Y-105674390D02*
X171561191Y-106245819D01*
X171561191Y-106245819D02*
X172180238Y-106245819D01*
X172799286Y-105245819D02*
X172894524Y-105245819D01*
X172894524Y-105245819D02*
X172989762Y-105293438D01*
X172989762Y-105293438D02*
X173037381Y-105341057D01*
X173037381Y-105341057D02*
X173085000Y-105436295D01*
X173085000Y-105436295D02*
X173132619Y-105626771D01*
X173132619Y-105626771D02*
X173132619Y-105864866D01*
X173132619Y-105864866D02*
X173085000Y-106055342D01*
X173085000Y-106055342D02*
X173037381Y-106150580D01*
X173037381Y-106150580D02*
X172989762Y-106198200D01*
X172989762Y-106198200D02*
X172894524Y-106245819D01*
X172894524Y-106245819D02*
X172799286Y-106245819D01*
X172799286Y-106245819D02*
X172704048Y-106198200D01*
X172704048Y-106198200D02*
X172656429Y-106150580D01*
X172656429Y-106150580D02*
X172608810Y-106055342D01*
X172608810Y-106055342D02*
X172561191Y-105864866D01*
X172561191Y-105864866D02*
X172561191Y-105626771D01*
X172561191Y-105626771D02*
X172608810Y-105436295D01*
X172608810Y-105436295D02*
X172656429Y-105341057D01*
X172656429Y-105341057D02*
X172704048Y-105293438D01*
X172704048Y-105293438D02*
X172799286Y-105245819D01*
X173465953Y-105245819D02*
X174085000Y-105245819D01*
X174085000Y-105245819D02*
X173751667Y-105626771D01*
X173751667Y-105626771D02*
X173894524Y-105626771D01*
X173894524Y-105626771D02*
X173989762Y-105674390D01*
X173989762Y-105674390D02*
X174037381Y-105722009D01*
X174037381Y-105722009D02*
X174085000Y-105817247D01*
X174085000Y-105817247D02*
X174085000Y-106055342D01*
X174085000Y-106055342D02*
X174037381Y-106150580D01*
X174037381Y-106150580D02*
X173989762Y-106198200D01*
X173989762Y-106198200D02*
X173894524Y-106245819D01*
X173894524Y-106245819D02*
X173608810Y-106245819D01*
X173608810Y-106245819D02*
X173513572Y-106198200D01*
X173513572Y-106198200D02*
X173465953Y-106150580D01*
X174465953Y-105341057D02*
X174513572Y-105293438D01*
X174513572Y-105293438D02*
X174608810Y-105245819D01*
X174608810Y-105245819D02*
X174846905Y-105245819D01*
X174846905Y-105245819D02*
X174942143Y-105293438D01*
X174942143Y-105293438D02*
X174989762Y-105341057D01*
X174989762Y-105341057D02*
X175037381Y-105436295D01*
X175037381Y-105436295D02*
X175037381Y-105531533D01*
X175037381Y-105531533D02*
X174989762Y-105674390D01*
X174989762Y-105674390D02*
X174418334Y-106245819D01*
X174418334Y-106245819D02*
X175037381Y-106245819D01*
X167545236Y-84894009D02*
X167688093Y-84941628D01*
X167688093Y-84941628D02*
X167735712Y-84989247D01*
X167735712Y-84989247D02*
X167783331Y-85084485D01*
X167783331Y-85084485D02*
X167783331Y-85227342D01*
X167783331Y-85227342D02*
X167735712Y-85322580D01*
X167735712Y-85322580D02*
X167688093Y-85370200D01*
X167688093Y-85370200D02*
X167592855Y-85417819D01*
X167592855Y-85417819D02*
X167211903Y-85417819D01*
X167211903Y-85417819D02*
X167211903Y-84417819D01*
X167211903Y-84417819D02*
X167545236Y-84417819D01*
X167545236Y-84417819D02*
X167640474Y-84465438D01*
X167640474Y-84465438D02*
X167688093Y-84513057D01*
X167688093Y-84513057D02*
X167735712Y-84608295D01*
X167735712Y-84608295D02*
X167735712Y-84703533D01*
X167735712Y-84703533D02*
X167688093Y-84798771D01*
X167688093Y-84798771D02*
X167640474Y-84846390D01*
X167640474Y-84846390D02*
X167545236Y-84894009D01*
X167545236Y-84894009D02*
X167211903Y-84894009D01*
X168640474Y-85417819D02*
X168640474Y-84894009D01*
X168640474Y-84894009D02*
X168592855Y-84798771D01*
X168592855Y-84798771D02*
X168497617Y-84751152D01*
X168497617Y-84751152D02*
X168307141Y-84751152D01*
X168307141Y-84751152D02*
X168211903Y-84798771D01*
X168640474Y-85370200D02*
X168545236Y-85417819D01*
X168545236Y-85417819D02*
X168307141Y-85417819D01*
X168307141Y-85417819D02*
X168211903Y-85370200D01*
X168211903Y-85370200D02*
X168164284Y-85274961D01*
X168164284Y-85274961D02*
X168164284Y-85179723D01*
X168164284Y-85179723D02*
X168211903Y-85084485D01*
X168211903Y-85084485D02*
X168307141Y-85036866D01*
X168307141Y-85036866D02*
X168545236Y-85036866D01*
X168545236Y-85036866D02*
X168640474Y-84989247D01*
X168973808Y-84751152D02*
X169354760Y-84751152D01*
X169116665Y-84417819D02*
X169116665Y-85274961D01*
X169116665Y-85274961D02*
X169164284Y-85370200D01*
X169164284Y-85370200D02*
X169259522Y-85417819D01*
X169259522Y-85417819D02*
X169354760Y-85417819D01*
X169545237Y-84751152D02*
X169926189Y-84751152D01*
X169688094Y-84417819D02*
X169688094Y-85274961D01*
X169688094Y-85274961D02*
X169735713Y-85370200D01*
X169735713Y-85370200D02*
X169830951Y-85417819D01*
X169830951Y-85417819D02*
X169926189Y-85417819D01*
X170640475Y-85370200D02*
X170545237Y-85417819D01*
X170545237Y-85417819D02*
X170354761Y-85417819D01*
X170354761Y-85417819D02*
X170259523Y-85370200D01*
X170259523Y-85370200D02*
X170211904Y-85274961D01*
X170211904Y-85274961D02*
X170211904Y-84894009D01*
X170211904Y-84894009D02*
X170259523Y-84798771D01*
X170259523Y-84798771D02*
X170354761Y-84751152D01*
X170354761Y-84751152D02*
X170545237Y-84751152D01*
X170545237Y-84751152D02*
X170640475Y-84798771D01*
X170640475Y-84798771D02*
X170688094Y-84894009D01*
X170688094Y-84894009D02*
X170688094Y-84989247D01*
X170688094Y-84989247D02*
X170211904Y-85084485D01*
X171116666Y-85417819D02*
X171116666Y-84751152D01*
X171116666Y-84941628D02*
X171164285Y-84846390D01*
X171164285Y-84846390D02*
X171211904Y-84798771D01*
X171211904Y-84798771D02*
X171307142Y-84751152D01*
X171307142Y-84751152D02*
X171402380Y-84751152D01*
X171640476Y-84751152D02*
X171878571Y-85417819D01*
X172116666Y-84751152D02*
X171878571Y-85417819D01*
X171878571Y-85417819D02*
X171783333Y-85655914D01*
X171783333Y-85655914D02*
X171735714Y-85703533D01*
X171735714Y-85703533D02*
X171640476Y-85751152D01*
X172259524Y-85513057D02*
X173021428Y-85513057D01*
X173830952Y-85322580D02*
X173783333Y-85370200D01*
X173783333Y-85370200D02*
X173640476Y-85417819D01*
X173640476Y-85417819D02*
X173545238Y-85417819D01*
X173545238Y-85417819D02*
X173402381Y-85370200D01*
X173402381Y-85370200D02*
X173307143Y-85274961D01*
X173307143Y-85274961D02*
X173259524Y-85179723D01*
X173259524Y-85179723D02*
X173211905Y-84989247D01*
X173211905Y-84989247D02*
X173211905Y-84846390D01*
X173211905Y-84846390D02*
X173259524Y-84655914D01*
X173259524Y-84655914D02*
X173307143Y-84560676D01*
X173307143Y-84560676D02*
X173402381Y-84465438D01*
X173402381Y-84465438D02*
X173545238Y-84417819D01*
X173545238Y-84417819D02*
X173640476Y-84417819D01*
X173640476Y-84417819D02*
X173783333Y-84465438D01*
X173783333Y-84465438D02*
X173830952Y-84513057D01*
X174640476Y-85370200D02*
X174545238Y-85417819D01*
X174545238Y-85417819D02*
X174354762Y-85417819D01*
X174354762Y-85417819D02*
X174259524Y-85370200D01*
X174259524Y-85370200D02*
X174211905Y-85274961D01*
X174211905Y-85274961D02*
X174211905Y-84894009D01*
X174211905Y-84894009D02*
X174259524Y-84798771D01*
X174259524Y-84798771D02*
X174354762Y-84751152D01*
X174354762Y-84751152D02*
X174545238Y-84751152D01*
X174545238Y-84751152D02*
X174640476Y-84798771D01*
X174640476Y-84798771D02*
X174688095Y-84894009D01*
X174688095Y-84894009D02*
X174688095Y-84989247D01*
X174688095Y-84989247D02*
X174211905Y-85084485D01*
X175259524Y-85417819D02*
X175164286Y-85370200D01*
X175164286Y-85370200D02*
X175116667Y-85274961D01*
X175116667Y-85274961D02*
X175116667Y-84417819D01*
X175783334Y-85417819D02*
X175688096Y-85370200D01*
X175688096Y-85370200D02*
X175640477Y-85274961D01*
X175640477Y-85274961D02*
X175640477Y-84417819D01*
X146621667Y-90595200D02*
X146764524Y-90642819D01*
X146764524Y-90642819D02*
X147002619Y-90642819D01*
X147002619Y-90642819D02*
X147097857Y-90595200D01*
X147097857Y-90595200D02*
X147145476Y-90547580D01*
X147145476Y-90547580D02*
X147193095Y-90452342D01*
X147193095Y-90452342D02*
X147193095Y-90357104D01*
X147193095Y-90357104D02*
X147145476Y-90261866D01*
X147145476Y-90261866D02*
X147097857Y-90214247D01*
X147097857Y-90214247D02*
X147002619Y-90166628D01*
X147002619Y-90166628D02*
X146812143Y-90119009D01*
X146812143Y-90119009D02*
X146716905Y-90071390D01*
X146716905Y-90071390D02*
X146669286Y-90023771D01*
X146669286Y-90023771D02*
X146621667Y-89928533D01*
X146621667Y-89928533D02*
X146621667Y-89833295D01*
X146621667Y-89833295D02*
X146669286Y-89738057D01*
X146669286Y-89738057D02*
X146716905Y-89690438D01*
X146716905Y-89690438D02*
X146812143Y-89642819D01*
X146812143Y-89642819D02*
X147050238Y-89642819D01*
X147050238Y-89642819D02*
X147193095Y-89690438D01*
X147526429Y-89642819D02*
X147764524Y-90642819D01*
X147764524Y-90642819D02*
X147955000Y-89928533D01*
X147955000Y-89928533D02*
X148145476Y-90642819D01*
X148145476Y-90642819D02*
X148383572Y-89642819D01*
X149288333Y-90642819D02*
X148716905Y-90642819D01*
X149002619Y-90642819D02*
X149002619Y-89642819D01*
X149002619Y-89642819D02*
X148907381Y-89785676D01*
X148907381Y-89785676D02*
X148812143Y-89880914D01*
X148812143Y-89880914D02*
X148716905Y-89928533D01*
D12*
%TO.C,D1*%
X131339000Y-91923000D02*
X128249000Y-91923000D01*
X129794000Y-97473000D02*
G75*
G02*
X128249170Y-91923000I0J2990000D01*
G01*
X131338830Y-91923000D02*
G75*
G02*
X129794000Y-97473000I-1544830J-2560000D01*
G01*
X132294000Y-94483000D02*
G75*
G02*
X127294000Y-94483000I-2500000J0D01*
G01*
X127294000Y-94483000D02*
G75*
G02*
X132294000Y-94483000I2500000J0D01*
G01*
%TO.C,R1*%
X139700000Y-91618000D02*
X139700000Y-92568000D01*
X139700000Y-97358000D02*
X139700000Y-96408000D01*
X140620000Y-92568000D02*
X138780000Y-92568000D01*
X138780000Y-96408000D01*
X140620000Y-96408000D01*
X140620000Y-92568000D01*
%TO.C,Bat2032*%
X157140000Y-90878000D02*
X160758000Y-90878000D01*
X157140000Y-92588000D02*
X157140000Y-90878000D01*
X157140000Y-96388000D02*
X157140000Y-98098000D01*
X160758000Y-98098000D02*
X157140000Y-98098000D01*
X163602700Y-86378000D02*
X179297300Y-86378000D01*
X167590000Y-102598000D02*
X163602700Y-102598000D01*
X169790000Y-100398000D02*
X167590000Y-102598000D01*
X173110000Y-100398000D02*
X169790000Y-100398000D01*
X173110000Y-100398000D02*
X175310000Y-102598000D01*
X179297300Y-102598000D02*
X175310000Y-102598000D01*
X182142000Y-90878000D02*
X185760000Y-90878000D01*
X185760000Y-92588000D02*
X185760000Y-90878000D01*
X185760000Y-96388000D02*
X185760000Y-98098000D01*
X185760000Y-98098000D02*
X182142000Y-98098000D01*
X160758000Y-90878000D02*
G75*
G02*
X163604628Y-86376210I10692020J-3610010D01*
G01*
X163604629Y-102599789D02*
G75*
G02*
X160758000Y-98098000I7845366J8111785D01*
G01*
X179295371Y-86376211D02*
G75*
G02*
X182142000Y-90878000I-7845371J-8111789D01*
G01*
X182142000Y-98098000D02*
G75*
G02*
X179295371Y-102599789I-10692020J3610012D01*
G01*
%TO.C,SW1*%
X149705000Y-94488000D02*
G75*
G02*
X146205000Y-94488000I-1750000J0D01*
G01*
X146205000Y-94488000D02*
G75*
G02*
X149705000Y-94488000I1750000J0D01*
G01*
X151075000Y-93388000D02*
X151075000Y-95588000D01*
X145455000Y-97608000D02*
X150455000Y-97608000D01*
X145455000Y-91368000D02*
X150455000Y-91368000D01*
X144835000Y-95588000D02*
X144835000Y-93388000D01*
%TD*%
M02*
